<?xml version="1.0" encoding="utf-8"?>
<!-- Generator: Adobe Illustrator 19.2.1, SVG Export Plug-In . SVG Version: 6.00 Build 0)  -->
<svg version="1.1" id="Layer_1" xmlns="http://www.w3.org/2000/svg" xmlns:xlink="http://www.w3.org/1999/xlink" x="0px" y="0px"
	 viewBox="0 0 815.8 282.2" style="enable-background:new 0 0 815.8 282.2;" xml:space="preserve">
<style type="text/css">
	.st0{fill:#FFFFFF;}
</style>
<title>dubai-police</title>
<g>
	<path class="st0" d="M16.5,183.8H0v45.8h16.1c15.4,0,25.5-10.5,25.5-23.1S31.8,183.8,16.5,183.8 M16.6,220.6h-6.2V193h6.2
		c8.6,0,14.6,5.9,14.6,13.8S25.4,220.7,16.6,220.6"/>
	<path class="st0" d="M78.2,210.6c0,6.4-3.9,10.1-9.3,10.1s-9.3-3.8-9.3-10.1v-26.8H49.1V211c0,11.7,7.7,19.4,19.6,19.4
		s19.8-7.9,19.8-19.7v-26.8H78.2V210.6L78.2,210.6z"/>
	<path class="st0" d="M127.9,205.7c3.7-2,5.9-5.8,5.9-10c0-7.6-6.6-11.9-14.5-11.9H98.7v45.8h21.8c8.3,0,15.3-4.9,15.3-12.8
		C135.9,211.8,132.7,207.3,127.9,205.7 M117.2,202.3h-8V192h8c4.1,0,6.2,2.5,6.2,5.2S121.3,202.3,117.2,202.3 M109.2,210h9.5
		c4.1,0,6.8,2.3,6.8,5.8c0,3.1-2.4,5.9-6.8,5.9h-9.5V210L109.2,210z"/>
	<path class="st0" d="M166.9,183.8h-10.2l-18.6,45.8H149l3.6-9.5h17.8l3.6,9.5h11.4L167,184L166.9,183.8z M167.5,211.8h-11.9l6-15.7
		L167.5,211.8z"/>
	<rect x="191" y="183.8" class="st0" width="10.7" height="45.8"/>
	<path class="st0" d="M248.8,183.8h-19.9v45.8h10.4v-14.4h9.1c10.9,0,17.5-7.1,17.5-15.9C266,189.7,258.6,183.8,248.8,183.8
		 M239.3,192.7h8.5c5,0,7.9,3.1,7.9,7s-2.9,7-7.9,7h-8.5L239.3,192.7L239.3,192.7z"/>
	<path class="st0" d="M295.6,183.2c-13.6,0-24.2,10.4-24.2,23.8c0,13.2,10.1,23.4,23.9,23.4c13.6,0,24.2-10.3,24.2-23.7
		C319.5,193.5,309.4,183.2,295.6,183.2 M295.4,220.8c-8,0-13.7-6-13.7-14c0-7.8,5.6-13.9,13.7-13.9c7.8,0,13.7,6,13.7,13.9
		S303.3,220.8,295.4,220.8"/>
	<path class="st0" d="M420.1,215.8c-2.6,3.3-6.5,5.1-10.6,5c-7.9,0-13.7-5.9-13.7-14s5.8-13.9,13.7-13.9c4-0.1,7.8,1.6,10.4,4.7
		l0.2,0.2l7.6-6.8l-0.2-0.2c-4.6-5-11.1-7.7-17.8-7.6c-13.6,0-24.2,10.4-24.2,23.8s10.3,23.4,23.9,23.4c7,0.2,13.8-2.8,18.4-8.1
		l0.2-0.2l-7.6-6.5L420.1,215.8z"/>
	<polygon class="st0" points="338.2,183.8 327.8,183.8 327.8,229.7 360.4,229.7 360.4,220.4 338.2,220.4 	"/>
	<rect x="366.4" y="183.8" class="st0" width="10.7" height="45.8"/>
	<polygon class="st0" points="444.6,220.6 444.6,210.4 464.9,210.4 464.9,201.8 444.6,201.8 444.6,192.9 468.1,192.9 468.1,183.8 
		434.2,183.8 434.2,229.7 468.8,229.7 468.8,220.6 	"/>
	<path class="st0" d="M252.2,72.5c3.8,0,6.8-3.1,6.8-6.8c0-3.8-3.1-6.8-6.8-6.8s-6.8,3.1-6.8,6.8C245.4,69.5,248.5,72.5,252.2,72.5"
		/>
	<path class="st0" d="M431.6,62.2c3.8,0,6.8-3.1,6.8-6.8c0-3.8-3.1-6.8-6.8-6.8c-3.8,0-6.8,3.1-6.8,6.8
		C424.8,59.2,427.9,62.2,431.6,62.2"/>
	<path class="st0" d="M422.1,78c3.8,0,6.8-3.1,6.8-6.8c0-3.8-3.1-6.8-6.8-6.8c-3.8,0-6.8,3.1-6.8,6.8C415.3,74.9,418.4,78,422.1,78"
		/>
	<path class="st0" d="M434.3,71.2c0,3.8,3.1,6.8,6.8,6.8c3.8,0,6.8-3.1,6.8-6.8c0-3.8-3.1-6.8-6.8-6.8
		C437.3,64.3,434.3,67.4,434.3,71.2"/>
	<path class="st0" d="M458.9,79.6l-11.5,7c2.7,4.4,10.6,19.8,7,41.7h-16.1V86.6h-13.4v41.7h-10.2V86.6h-13.4v41.7h-19V81.1h-13.4
		V134c0,10.8-8.8,19.6-19.6,19.6h-3.4v13.4h3.4c15.3,0,28.6-10.5,32.2-25.4h83.7l1.2-5.1C473.6,107,462.5,85.5,458.9,79.6"/>
	<path class="st0" d="M168.3,79.5l-6,12c17.4,8.8,18.5,26,17.1,36.7h-29.9v13.4h40.9l1.2-5.3C199.9,98.7,175.9,83.3,168.3,79.5"/>
	<path class="st0" d="M353.1,141.6l3.5-12c3.2-10.8,1.1-22.5-5.6-31.6c-11.8-15.8-34.2-19.1-50-7.4c-0.6,0.5-1.2,1-1.8,1.5
		l-11.8,10.1V65.7H274v62.5h-15.1V81.1H245c-18.5,0-33.5,15-33.6,33.6v27h13.4v-27c0-11.1,9-20.1,20.1-20.1h0.4v47.1L353.1,141.6
		L353.1,141.6z M287.4,119.9l20.5-17.5c9.4-8,23.5-6.9,31.5,2.5c0.3,0.4,0.6,0.8,0.9,1.2c4.2,5.7,5.5,13,3.5,19.8l-0.7,2.4h-55.7
		L287.4,119.9L287.4,119.9z"/>
	<path class="st0" d="M127.3,150.2c-3.8,0-6.8,3.1-6.8,6.8c0,3.8,3.1,6.8,6.8,6.8c3.8,0,6.8-3.1,6.8-6.8
		C134.2,153.3,131.1,150.2,127.3,150.2"/>
	<path class="st0" d="M55.7,150.2c-3.8,0-6.8,3.1-6.8,6.8s3.1,6.8,6.8,6.8c3.8,0,6.8-3.1,6.8-6.8C62.5,153.3,59.5,150.2,55.7,150.2"
		/>
	<path class="st0" d="M38.5,150.2c-3.8,0-6.8,3.1-6.8,6.8s3.1,6.8,6.8,6.8c3.8,0,6.8-3.1,6.8-6.8C45.4,153.3,42.3,150.2,38.5,150.2"
		/>
	<path class="st0" d="M235.5,72.5c3.8,0,6.8-3.1,6.8-6.8c0-3.8-3.1-6.8-6.8-6.8c-3.8,0-6.8,3.1-6.8,6.8
		C228.7,69.5,231.7,72.5,235.5,72.5"/>
	<path class="st0" d="M128,120c0,4.5-3.7,8.2-8.2,8.2h-6.2V81.1H99.6c-18.1,0-32.3,14.7-32.3,33.6v13.6H13.4v-1.8
		c0-14.1,3.4-28,10-40.5l-11.8-6.3C4,94,0,110.1,0,126.4v15.2h80.6v-27c0-11.5,8.1-20.1,18.9-20.1h0.7v47.1h19.6
		c11.9,0,21.6-9.7,21.6-21.6V81.1H128V120z"/>
	<path class="st0" d="M813.2,157.9c-2.3-0.1-4.7,0-7,0.4c1.7-1.9,3.2-3.9,4.6-6c5-7.8,6.3-17.4,3.7-26.3c-2.3,0.4-4.6,1-6.7,1.9
		c1.3-2.2,2.3-4.5,3.2-6.8c3.2-8.7,2.5-18.4-2-26.5c-2.2,0.9-4.3,2-6.2,3.3c0.8-2.4,1.3-4.9,1.7-7.4C805.7,81.3,803,72,797,65
		c-2,1.3-3.7,2.8-5.3,4.5c0.3-2.5,0.3-5,0.1-7.5c-0.7-9.2-5.3-17.7-12.7-23.3c-1.6,1.7-3.1,3.5-4.3,5.5c-0.3-2.5-0.8-5-1.5-7.4
		c-2.6-8.9-8.9-16.2-17.3-20.1c-1.2,2-2.2,4.1-3,6.3c-0.8-2.4-1.8-4.7-3-6.9c-4.4-8.2-12.1-14-21.2-16c-1.6,4.5-2.2,9.4-1.7,14.1
		c-1-0.8-2.2-1.5-3.4-2.3c-7.9-4.8-17.5-6-26.3-3.3c1.7,9.1,7.2,17.1,15.2,21.8c1.2,0.7,2.4,1.4,3.6,1.9c-4.5,1.7-8.5,4.5-11.7,8.1
		c5,5.8,11.8,9.7,19.4,10.8c3.6,6.6,9.5,11.8,16.5,14.5c2.1,7.2,6.8,13.5,13.1,17.6c0.6,7.5,3.8,14.6,9.1,20
		c-1,7.5,0.6,15.1,4.7,21.5c-2.6,7.1-2.6,14.9,0.1,22c-4,6.4-5.6,14-4.5,21.5c-5.3,5.4-8.5,12.5-9,20.1c-6.3,4.2-10.9,10.5-13,17.7
		c-7,2.8-12.9,7.9-16.4,14.6c-7.5,1.2-14.2,5-19.1,10.8c-9.2-0.5-18.1,3-24.5,9.6c-4.4,4.4-7,8.8-8.3,12.8c-1.2,4-5.4,6.3-9.5,5.1
		c-2.5-0.7-4.4-2.7-5.1-5.1c-1.3-4.1-3.9-8.4-8.3-12.8c-6.4-6.6-15.3-10-24.5-9.6c-4.9-5.8-11.6-9.6-19.1-10.9
		c-3.6-6.7-9.4-11.8-16.4-14.6c-2.1-7.3-6.7-13.5-13-17.7c-0.5-7.5-3.7-14.7-9-20.1c1.1-7.5-0.5-15.1-4.5-21.5
		c2.6-7.1,2.7-14.9,0.1-22c4.1-6.4,5.7-14,4.7-21.5c5.3-5.4,8.6-12.5,9.1-20c6.3-4.1,11-10.4,13.1-17.6c7.1-2.7,12.9-7.8,16.5-14.5
		c7.6-1.2,14.4-5,19.4-10.8c-3.2-3.6-7.3-6.3-11.7-8.1c1.2-0.6,2.4-1.2,3.6-1.9c8-4.7,13.5-12.6,15.2-21.7
		c-8.8-2.8-18.5-1.6-26.3,3.3c-1.2,0.7-2.3,1.5-3.4,2.3c0.5-4.8,0-9.6-1.7-14.1c-9,2-16.8,7.9-21.2,16c-1.2,2.2-2.2,4.5-3,6.9
		c-0.8-2.2-1.8-4.3-3-6.3c-8.4,3.9-14.7,11.2-17.3,20.1c-0.7,2.4-1.2,4.9-1.5,7.4c-1.2-2-2.6-3.9-4.3-5.5
		c-7.4,5.6-12.1,14.1-12.7,23.4c-0.2,2.5-0.2,5,0.1,7.6c-1.6-1.7-3.4-3.2-5.4-4.6c-6.1,7-8.8,16.3-7.5,25.5c0.3,2.5,0.9,5,1.7,7.4
		c-1.9-1.3-4-2.4-6.2-3.3c-4.5,8.1-5.2,17.8-2,26.5c0.8,2.4,1.9,4.7,3.2,6.8c-2.2-0.9-4.4-1.5-6.7-1.9c-2.6,8.9-1.3,18.5,3.7,26.3
		c1.3,2.1,2.9,4.1,4.6,6c-2.3-0.4-4.7-0.6-7-0.4c-0.7,9.2,2.6,18.3,9.1,24.9c1.7,1.8,3.7,3.5,5.7,4.9c-2.3,0.1-4.7,0.4-6.9,1
		c1.3,9.2,6.4,17.4,14.2,22.5c2.1,1.4,4.3,2.6,6.6,3.6c-2.3,0.6-4.5,1.4-6.5,2.5c3.2,8.7,9.9,15.7,18.6,19c2.3,0.9,4.8,1.7,7.2,2.1
		c-2.1,1-4.1,2.3-5.9,3.8c4.9,7.8,13,13.2,22.2,14.6c2.5,0.4,5,0.6,7.5,0.6c-1.8,1.5-3.5,3.1-5,5c6.5,6.7,15.5,10.2,24.8,9.7
		c2.5-0.1,5-0.4,7.5-1c-1.5,1.8-2.8,3.8-3.8,5.9c7.7,5.1,17.3,6.7,26.2,4.2c3.9-1,7.6-2.6,11-4.9c9.3-6.3,21.5-6.3,30.8,0
		c3.4,2.2,7.1,3.9,11,4.9c8.9,2.5,18.5,0.9,26.2-4.2c-1-2.1-2.3-4.1-3.8-5.9c2.5,0.6,5,0.9,7.5,1c9.3,0.5,18.3-3,24.8-9.6
		c-1.5-1.8-3.1-3.5-5-5c2.5,0.1,5-0.1,7.5-0.6c9.2-1.4,17.2-6.8,22.2-14.6c-1.8-1.5-3.8-2.8-5.9-3.8c2.5-0.5,4.9-1.2,7.2-2.1
		c8.7-3.3,15.4-10.3,18.6-19c-2.1-1.1-4.3-1.9-6.5-2.5c2.3-1,4.5-2.2,6.6-3.6c7.7-5.1,12.9-13.3,14.2-22.5c-2.3-0.6-4.6-0.9-6.9-1
		c2.1-1.5,4-3.1,5.7-4.9C810.5,176.2,813.8,167.1,813.2,157.9 M610,227.2c5.5,2.1,10.1,5.8,13.3,10.8c4,6.2,5.3,11.7,4.3,16.6
		c-4.8-1.1-9.2-4.6-13.2-10.8C611.2,238.8,609.6,233.1,610,227.2 M592.1,213.3c4.9,3.2,8.6,7.9,10.7,13.4c2.6,6.9,2.7,12.5,0.8,17.1
		c-4.5-2.1-8.1-6.5-10.7-13.4C590.7,225,590.5,219,592.1,213.3 M577.5,196c4.1,4.1,6.8,9.5,7.6,15.3c1.1,7.3,0,12.8-2.9,16.9
		c-3.9-3-6.5-8-7.6-15.3C573.7,207.1,574.8,201.2,577.5,196 M566.9,176c3.2,4.9,4.6,10.7,4.2,16.6c-0.5,7.4-2.7,12.5-6.4,15.9
		c-3.2-3.8-4.7-9.2-4.2-16.6C560.9,186,563.1,180.5,566.9,176 M547,143.4c2.7-5.2,7.1-9.3,12.3-11.8c0.8,5.8-0.2,11.7-3,16.8
		c-3.5,6.5-7.6,10.3-12.3,11.9C542.6,155.4,543.5,149.9,547,143.4 M541.7,133.9c-0.3-5,1.7-10.2,6.5-15.8c3.8-4.5,8.9-7.6,14.5-9
		c-0.4,5.8-2.7,11.4-6.5,15.8C551.5,130.5,546.6,133.4,541.7,133.9 M551.2,168.3c1.6-5.6,4.9-10.6,9.6-14.2c2,5.5,2.3,11.5,0.6,17.1
		c-2,7.1-5.3,11.7-9.6,14.2C549.5,181,549.2,175.4,551.2,168.3 M561,102c-5.9,4.5-11.2,6.3-16.1,5.7c0.7-4.9,3.8-9.6,9.7-14.1
		c4.6-3.6,10.3-5.6,16.1-5.7C569,93.5,565.7,98.5,561,102 M618,40.5c-4.6,3.6-10.3,5.5-16.2,5.6c-7.4,0.1-12.7-1.6-16.4-5
		c3.5-3.5,8.8-5.5,16.2-5.6C607.5,35.4,613.3,37.1,618,40.5 M609.6,16.6c5-3.1,10.8-4.4,16.7-3.9c-2.2,5.4-6.2,9.9-11.2,12.9
		c-6.3,3.8-11.8,5-16.7,3.9C599.7,24.7,603.2,20.4,609.6,16.6 M585.3,18.7c2.8-5.2,7.2-9.3,12.5-11.7c0.8,5.8-0.4,11.7-3.2,16.8
		c-3.6,6.5-7.7,10.2-12.5,11.7C580.9,30.7,581.8,25.2,585.3,18.7 M582,51.4c5.7-1.4,11.6-0.9,17,1.4c-3.8,4.5-8.9,7.6-14.6,8.9
		c-7.2,1.7-12.8,1.1-17-1.4C570,56.1,574.8,53.1,582,51.4 M562.4,38.4c1.7-5.6,5.1-10.5,9.7-14c2,5.5,2.1,11.5,0.4,17.1
		c-2.1,7.1-5.4,11.6-9.8,14.1C560.5,51.1,560.3,45.5,562.4,38.4 M566,71c5.3-2.6,11.2-3.3,17-2.2c-2.8,5.2-7.1,9.3-12.4,11.8
		c-6.7,3.2-12.3,3.8-17,2.2C555.3,78.1,559.3,74.2,566,71 M544.2,62.4c0.4-5.8,2.7-11.4,6.6-15.8c3.1,5,4.5,10.8,4,16.6
		c-0.6,7.4-2.8,12.5-6.6,15.8C545,75.2,543.6,69.8,544.2,62.4 M534.5,73c4.1,4.2,6.7,9.6,7.4,15.4c1,7.3-0.2,12.8-3.1,16.8
		c-3.9-3.1-6.4-8.1-7.4-15.4C530.6,84,531.7,78.1,534.5,73 M524.1,102.2c4.9,3.3,8.5,8,10.5,13.5c2.5,7,2.6,12.6,0.5,17.1
		c-4.5-2.2-8-6.6-10.5-13.5C522.6,113.8,522.5,107.8,524.1,102.2 M520.1,132.9c5.4,2.2,10,6,13.1,11c3.9,6.3,5.2,11.8,4.1,16.6
		c-4.8-1.2-9.2-4.7-13.1-11C521.1,144.5,519.7,138.7,520.1,132.9 M530.3,179c-4.1-4.2-6.7-9.6-7.5-15.4c5.8,1,11.1,3.8,15.1,8
		c5.1,5.4,7.5,10.4,7.5,15.4C540.4,186.8,535.4,184.3,530.3,179 M542.4,206.7c-4.9-3.2-8.6-7.9-10.6-13.4c5.8-0.3,11.6,1.4,16.5,4.6
		c6.2,4.1,9.5,8.6,10.6,13.4C554,212.2,548.5,210.8,542.4,206.7 M560,231.2c-5.5-2.1-10.1-5.9-13.2-10.9c5.7-1.5,11.6-1.1,17.1,1.1
		c6.9,2.7,11.1,6.4,13.2,10.9C572.5,234.2,566.9,233.9,560,231.2 M582.4,251.5c-5.8-0.9-11.1-3.7-15.2-7.9
		c5.2-2.7,11.1-3.6,16.9-2.6c7.3,1.2,12.2,3.9,15.2,7.9C595.2,251.7,589.7,252.7,582.4,251.5 M608.6,266.5
		c-5.8,0.3-11.6-1.3-16.5-4.5c4.5-3.7,10.2-5.8,16-6.1c7.4-0.4,12.8,1.2,16.5,4.5C621.2,264.1,616,266.2,608.6,266.5 M637.4,275.7
		c-5.6,1.5-11.6,1.2-17.1-0.9c3.7-4.6,8.7-7.8,14.3-9.3c7.1-1.9,12.7-1.5,17.1,0.9C649.2,270.7,644.5,273.9,637.4,275.7
		 M638.2,252.3c-4.2-4.1-6.9-9.5-7.7-15.3c5.8,0.9,11.1,3.6,15.2,7.8c5.2,5.2,7.6,10.3,7.7,15.3C648.4,260,643.4,257.5,638.2,252.3
		 M810.2,132.8c0.5,5.8-1,11.7-4.1,16.6c-3.9,6.3-8.3,9.8-13.1,11c-1-4.9,0.2-10.3,4.1-16.6C800.2,138.8,804.8,134.9,810.2,132.8
		 M806.2,102.1c1.7,5.6,1.5,11.6-0.5,17.1c-2.5,7-6,11.3-10.5,13.5c-2-4.5-2-10.2,0.5-17.1C797.7,110.1,801.3,105.4,806.2,102.1
		 M788.5,88.4c0.7-5.8,3.3-11.2,7.4-15.4c2.8,5.1,3.9,11,3.1,16.8c-1,7.3-3.5,12.3-7.4,15.4C788.6,101.2,787.5,95.7,788.5,88.4
		 M774.1,148.4c-2.8-5.1-3.8-11-3-16.8c5.3,2.5,9.6,6.7,12.3,11.8c3.5,6.5,4.3,12.1,3,16.9C781.7,158.7,777.6,154.9,774.1,148.4
		 M778.6,185.5c-4.3-2.5-7.5-7.1-9.6-14.2c-1.6-5.6-1.4-11.6,0.6-17.1c4.6,3.6,8,8.5,9.6,14.2C781.2,175.5,781,181.1,778.6,185.5
		 M774.2,125c-3.8-4.4-6.1-10-6.5-15.8c5.7,1.4,10.8,4.5,14.5,9c4.8,5.6,6.8,10.9,6.5,15.8C783.8,133.5,779,130.6,774.2,125
		 M779.7,46.7c3.8,4.4,6.1,9.9,6.6,15.8c0.6,7.4-0.8,12.8-4,16.6c-3.7-3.3-6-8.4-6.6-15.8C775.2,57.5,776.6,51.6,779.7,46.7
		 M758.2,24.3c4.7,3.5,8.1,8.4,9.8,14c2.1,7.1,1.9,12.7-0.4,17.1c-4.3-2.4-7.6-7-9.8-14.1C756.1,35.8,756.3,29.8,758.2,24.3
		 M732.6,7c5.3,2.4,9.7,6.5,12.5,11.7c3.6,6.5,4.5,12,3.2,16.8c-4.8-1.5-8.9-5.2-12.5-11.7C732.9,18.7,731.8,12.8,732.6,7
		 M715.3,25.6c-5-3-8.9-7.5-11.2-12.9c5.8-0.5,11.7,0.8,16.7,3.9c6.3,3.8,9.9,8.1,11.2,12.9C727.1,30.6,721.7,29.5,715.3,25.6
		 M728.5,46.1c-5.8-0.1-11.5-2-16.2-5.6c4.8-3.4,10.5-5.1,16.3-5c7.4,0.1,12.7,2.1,16.2,5.6C741.2,44.5,735.9,46.2,728.5,46.1
		 M731.4,52.8c5.4-2.3,11.3-2.8,17-1.4c7.2,1.7,11.9,4.7,14.6,8.9c-4.3,2.5-9.9,3.1-17,1.4C740.3,60.4,735.2,57.3,731.4,52.8
		 M747.4,68.8c5.8-1.1,11.7-0.4,17,2.2c6.7,3.2,10.7,7.1,12.4,11.8c-4.7,1.6-10.3,1-17-2.2C754.5,78.1,750.2,74,747.4,68.8
		 M759.7,87.8c5.8,0.1,11.5,2.1,16.1,5.7c5.9,4.5,8.9,9.2,9.7,14.1c-4.9,0.6-10.3-1.2-16.1-5.7C764.7,98.4,761.3,93.4,759.7,87.8
		 M763.5,176c3.8,4.5,6,10,6.4,15.9c0.5,7.4-1,12.8-4.2,16.6c-3.7-3.3-5.9-8.5-6.4-15.9C758.9,186.7,760.4,180.9,763.5,176
		 M745.3,211.3c0.8-5.8,3.5-11.2,7.6-15.3c2.7,5.2,3.8,11.1,2.9,16.9c-1.1,7.3-3.7,12.3-7.6,15.3
		C745.3,224.2,744.2,218.6,745.3,211.3 M727.6,226.7c2-5.5,5.8-10.2,10.7-13.4c1.6,5.6,1.3,11.6-0.7,17.1
		c-2.6,6.9-6.2,11.2-10.7,13.4C724.9,239.3,725,233.6,727.6,226.7 M707.1,238c3.1-4.9,7.8-8.7,13.2-10.8c0.4,5.8-1.1,11.6-4.3,16.5
		c-4,6.2-8.4,9.7-13.2,10.8C701.8,249.7,703.2,244.2,707.1,238 M684.7,244.8c4.1-4.2,9.4-6.9,15.2-7.8c-0.9,5.8-3.6,11.1-7.7,15.3
		c-5.2,5.3-10.2,7.7-15.2,7.8C677.1,255.1,679.5,250.1,684.7,244.8 M693.1,275.7c-7.1-1.9-11.8-5-14.4-9.3c4.3-2.4,9.9-2.8,17.1-0.9
		c5.7,1.5,10.7,4.7,14.3,9.3C704.7,276.9,698.7,277.3,693.1,275.7 M721.8,266.5c-7.4-0.4-12.6-2.5-16-6.1c3.7-3.3,9.1-4.9,16.5-4.5
		c5.8,0.2,11.5,2.4,16,6.1C733.5,265.2,727.7,266.8,721.8,266.5 M748,251.4c-7.3,1.2-12.8,0.3-16.9-2.6c3-4,7.9-6.7,15.2-7.9
		c5.8-1,11.7-0.1,16.9,2.6C759.1,247.8,753.8,250.5,748,251.4 M770.4,231.2c-6.9,2.7-12.5,3-17.1,1.1c2.1-4.5,6.3-8.2,13.2-10.9
		c5.4-2.2,11.4-2.6,17.1-1.1C780.5,225.3,775.9,229.1,770.4,231.2 M798.6,193.3c-2,5.5-5.7,10.2-10.6,13.4
		c-6.2,4.1-11.6,5.5-16.5,4.6c1.1-4.9,4.4-9.3,10.6-13.4C787,194.6,792.8,193,798.6,193.3 M785,187c0-5,2.4-10.1,7.5-15.4
		c4-4.2,9.3-7,15.1-8c-0.8,5.8-3.4,11.2-7.5,15.4C795,184.3,790,186.9,785,187"/>
	<path class="st0" d="M581.6,152.5v3.8c4.8,9.3,10.2,18.2,16.2,26.8h-13.4c0,0,2.7,5.5,10.9,5.5h139.9c8.3,0,10.9-5.5,10.9-5.5
		h-12.3c6.2-9.2,11.9-18.8,16.9-28.7h6.7v-10.5H721c-38.3-31.1-46.5-84.3-24.2-124.1C632.9,32.4,585,87.8,581.6,152.5 M584.4,152.6
		c18.9-11.7,40.5-18.4,62.7-19.7v19.7H584.4L584.4,152.6z M717.7,148.3l-3.2,4.3h-58.8v-19.9C677.4,132.8,698.6,138.2,717.7,148.3
		 M705.7,136.7c-38.5-15-81.6-12.3-117.8,7.5c6.8-55.1,45.6-100.8,98.9-116.4C671.6,64.7,679,107.1,705.7,136.7"/>
	<path class="st0" d="M659,235h12.4c8.3,0,10.9-5.5,10.9-5.5h-34.3C648.1,229.5,650.7,235,659,235"/>
	<path class="st0" d="M707.3,217.9h-84.2c0,0,2.7,5.5,10.9,5.5h62.3C704.6,223.4,707.3,217.9,707.3,217.9"/>
	<path class="st0" d="M726.3,206.3H604.1c0,0,2.7,5.5,10.9,5.5h100.3C723.7,211.8,726.3,206.3,726.3,206.3"/>
	<path class="st0" d="M737.9,194.7H592.5c0,0,2.7,5.5,10.9,5.5H727C735.3,200.2,737.9,194.7,737.9,194.7"/>
</g>
</svg>
