<?xml version="1.0" encoding="utf-8"?>
<!-- Generator: Adobe Illustrator 19.2.1, SVG Export Plug-In . SVG Version: 6.00 Build 0)  -->
<svg version="1.1" id="Layer_1" xmlns="http://www.w3.org/2000/svg" xmlns:xlink="http://www.w3.org/1999/xlink" x="0px" y="0px"
	 viewBox="0 0 515.4 211.9" style="enable-background:new 0 0 515.4 211.9;" xml:space="preserve">
<style type="text/css">
	.st0{fill:#008656;}
</style>
<path class="st0" d="M251.5,72.9c54.4-32.7,120-23.6,163.3,23c17.9,19.3,28.4,42.4,32.2,68.4c0.1,1.9,0.5,3.9-2.1,4.4
	c-2.5,0.4-3-1.5-3.4-3.4c-0.2-1.1-0.3-2.2-0.5-3.3c-4.3-25.5-15.5-47.6-33.6-65.9C356.6,45,276.7,46.9,227.7,100
	c-1.6,1.7-3.1,4.4-5.7,2c-2.4-2.2,0.1-4,1.4-5.5C231.6,87.3,240.9,79.3,251.5,72.9"/>
<path class="st0" d="M231.8,112.2c13.6-16.5,29.4-26.5,45.7-33.2c22.3-9.2,48.4-9.4,72.2-2.7c40.7,11.4,69.6,40.9,78.8,79.8
	c0.5,2.2,1.3,4.8-1.6,5.5c-3,0.7-3.2-2.1-3.8-4.3c-2.8-10.5-6.1-20.1-12.4-29.8C373.6,69.8,292.5,59.1,244,106.9
	c-3.3,3.2-6.1,6.9-9.1,10.3c-1.3,1.4-2.7,2.9-4.6,1.4c-2-1.5-1.1-3.2,0.1-4.7C230.9,113.4,231.3,112.8,231.8,112.2"/>
<path class="st0" d="M250.7,115.8c48.2-49.8,133-32.8,157.8,31.8c0.8,2.2,2.5,4.8-0.9,6c-2.9,1-3.4-1.8-4.2-3.9
	c-13.8-34.7-46.1-58.6-90.5-57.3c-18.8,1.4-40.3,9.2-58.2,27.3c-1.4,1.4-2.9,4.2-5.4,2C246.7,119.3,249.1,117.5,250.7,115.8"/>
<path class="st0" d="M221,53.6c0.6-0.5,1.2-0.9,1.7-1.3c28.8-21.2,61-31.8,99.8-31.9c3.1,0.2,9.4,0.6,15.6,1c0.5,0,1.1,0.2,1.6,0.3
	c1.8,0.3,3.3,1.1,3.1,3.1c-0.3,2-1.8,2.5-3.7,2.3c-0.9-0.1-1.8-0.2-2.7-0.3c-32-3.3-62.2,2.5-90.7,17.6c-7.4,4-14.5,8.6-21.2,13.6
	c-1.6,1.2-3.3,1.9-4.7-0.1C218.5,56.1,219.7,54.8,221,53.6"/>
<path class="st0" d="M444.6,79.5c13.6,16.6,23.7,35.1,29.9,55.7c2.6,8.6,4.6,17.3,5.7,26.2c0.2,1.9-0.5,3.5-2.4,3.7
	c-2,0.2-2.8-1.3-3-3.1c-0.1-0.9-0.3-1.8-0.5-2.7c-4.1-28.2-15.4-53.2-33.2-75.4C439.3,81.8,443.2,77.8,444.6,79.5"/>
<path class="st0" d="M406.1,72.6c-1.7-1.3-4.9-2.5-2.6-5.5c2.2-2.9,4.3-0.3,6,1.1c10.3,8.1,19.4,17.4,27.1,27.9
	c13.5,18.5,22.4,38.9,26.2,62.1c0.1,1.5-0.6,3.2-2,3.4c-2.1,0.3-2.9-1-3.3-2.8c-0.3-1.4-0.7-2.8-1-4.3
	C449.5,121.2,432.6,94,406.1,72.6"/>
<path class="st0" d="M504.7,142.1c-4.5-20-11.7-39-22.4-56.7c-3-5-6.3-9.9-9.5-14.7c-1.1-1.7-1.2-3.1,0.5-4.3c1.5-1,2.8-0.3,3.8,0.9
	c0.6,0.7,1.1,1.5,1.6,2.2c15.3,21.7,25.9,45.5,31.4,71.5c3.1,0.7,5.4,3.4,5.4,6.7c0,3.8-3.1,6.9-6.9,6.9c-3.8,0-6.9-3.1-6.9-6.9
	C501.7,145.4,502.9,143.3,504.7,142.1"/>
<path class="st0" d="M453.5,74.6c-3.8,0-6.9-3.1-6.9-6.9c0-3.8,3.1-6.9,6.9-6.9c3.8,0,6.9,3.1,6.9,6.9c0,1.3-0.4,2.6-1.1,3.6
	c4.4,5.5,8.5,11.3,12.2,17.3c12.6,20.5,20.7,42.7,24.5,66.5c0.4,2.1-0.2,3.9-2.4,4.1c-2.3,0.2-2.8-1.7-3.2-3.7
	c-1.1-5.9-2.1-11.9-3.7-17.7c-6.3-23.4-17-44.5-32-63.4C454.3,74.5,453.9,74.6,453.5,74.6"/>
<path class="st0" d="M360.3,53.5c-3.8,0-6.8-3-6.9-6.8c-32.3-7.7-63.8-4.9-94.2,9.4c-11.2,5.2-21.3,12-30.7,20
	c-1.6,1.4-3.4,2.7-5.1,0.5c-1.4-1.9-0.1-3.4,1.5-4.6c0.6-0.5,1.1-0.9,1.7-1.4c38.7-30.7,81.7-40.5,129.1-28.9
	c1.2-1.2,2.9-1.9,4.7-1.9c3.8,0,6.9,3.1,6.9,6.9C367.1,50.4,364.1,53.5,360.3,53.5"/>
<path class="st0" d="M311,13.7c-2.7,0-5-1.6-6.2-3.9c-16.7,1.5-32.9,5.1-48.5,11.3c-9.7,3.9-19,8.4-27.9,14
	c-1.8,1.1-3.7,2.3-5.1-0.1c-1.5-2.5,0.7-3.6,2.3-4.7c0.9-0.6,1.9-1.1,2.8-1.7c23.6-14,49.1-21.9,76.2-24.3c1-2.5,3.5-4.3,6.4-4.3
	c3.8,0,6.9,3.1,6.9,6.9C317.8,10.6,314.8,13.7,311,13.7"/>
<path class="st0" d="M281.8,110.4c1.2,0,2.3,0.3,3.3,0.9c29.2-13.9,62.4-9.4,87.1,12.3c4,3.5,7.5,7.5,10.7,11.8
	c1.2,1.6,2.7,3.5,0.6,5.3c-2.2,1.8-3.6,0-4.9-1.7c-0.7-0.9-1.4-1.7-2.1-2.6c-14.9-18-34.1-27-57.4-27.4c-10.9-0.3-21.1,2.3-30.8,6.7
	c0.1,0.5,0.2,1.1,0.2,1.6c0,3.8-3.1,6.9-6.9,6.9c-3.8,0-6.9-3.1-6.9-6.9C275,113.5,278.1,110.4,281.8,110.4"/>
<path class="st0" d="M17.1,204.8c0.8,0,1.6-0.1,2.4-0.2c0.9-0.1,1.7-0.3,2.5-0.5c0.8-0.2,1.5-0.5,2.2-0.8c0.7-0.3,1.2-0.7,1.6-1
	l3.2,6.5c-1.6,0.9-3.4,1.6-5.4,2.3c-2.1,0.6-4.5,1-7.4,1c-2.3,0-4.5-0.4-6.4-1.2c-2-0.8-3.7-1.9-5.1-3.3c-1.4-1.4-2.6-3-3.4-4.9
	c-0.8-1.9-1.2-3.9-1.2-6.1c0-2.3,0.4-4.3,1.2-6.3c0.8-1.9,1.9-3.6,3.3-4.9c1.4-1.4,3.1-2.4,5-3.2c1.9-0.8,3.9-1.1,6.1-1.1
	c2.3,0,4.3,0.4,6.2,1.2c1.9,0.8,3.5,2,4.9,3.5c1.4,1.5,2.4,3.4,3.1,5.7c0.7,2.2,1,4.7,0.9,7.6H7.5c0.5,2,1.5,3.5,3.1,4.5
	c1.5,1,3.5,1.5,5.8,1.5H17.1z M20.5,188.7c-1.4-0.9-3-1.4-5-1.4c-2,0-3.7,0.5-5,1.5c-1.4,1-2.3,2.3-2.7,3.9h15.3
	C22.7,191,21.9,189.6,20.5,188.7"/>
<path class="st0" d="M62,175.3c-1.9,0-3.7,0.3-5.5,0.9c-1.7,0.6-3.2,1.5-4.5,2.7c-1.3,1.2-2.3,2.7-3.1,4.6c-0.8,1.8-1.1,4-1.1,6.5
	c0,2.5,0.4,4.7,1.1,6.5c0.8,1.8,1.8,3.4,3.1,4.6c1.3,1.2,2.8,2.1,4.5,2.7c1.7,0.6,3.5,0.9,5.5,0.9c2.1,0,4-0.3,5.8-0.9
	c1.8-0.6,3.5-1.3,5-2.3l2.9,6.7c-1.8,1.1-3.9,2-6.4,2.6c-2.4,0.6-5,1-7.7,1c-3.3,0-6.4-0.5-9.1-1.6c-2.7-1.1-5-2.6-6.9-4.6
	c-1.9-2-3.4-4.3-4.4-6.9c-1-2.7-1.5-5.6-1.5-8.7c0-3.1,0.5-6,1.5-8.7c1-2.7,2.5-5,4.4-6.9c1.9-2,4.2-3.5,6.9-4.6
	c2.7-1.1,5.7-1.6,9.1-1.6c2.7,0,5.2,0.3,7.7,1c2.4,0.7,4.6,1.5,6.4,2.7l-2.9,6.6c-1.5-0.9-3.2-1.7-5-2.3
	C66,175.6,64.1,175.3,62,175.3"/>
<path class="st0" d="M103.3,188.4h-4.2c-0.3,0-0.7,0-1.2,0c-0.5,0-1.1,0.1-1.7,0.1c-0.6,0.1-1.1,0.1-1.6,0.2
	c-0.5,0.1-0.9,0.1-1.1,0.2v22.3h-7.3v-28.6c0.9-0.2,1.9-0.3,2.9-0.5c1-0.2,2.1-0.3,3.1-0.4c1-0.1,2-0.2,2.9-0.3
	c1-0.1,1.8-0.1,2.6-0.1h5.5V188.4z"/>
<path class="st0" d="M117.9,177.3c-1.1,0-2.1-0.3-3-1c-0.9-0.7-1.3-1.6-1.3-2.9c0-1.1,0.4-2.1,1.2-2.8c0.8-0.7,1.8-1.1,3.1-1.1
	c1.2,0,2.2,0.4,3,1.1c0.8,0.7,1.2,1.6,1.2,2.8c0,1.2-0.4,2.1-1.2,2.8C120.2,177,119.2,177.3,117.9,177.3 M114.3,181.9h7.3v29.4h-7.3
	V181.9z"/>
<path class="st0" d="M171.1,195c0-2.7-0.5-4.5-1.4-5.5c-0.9-1-2.4-1.5-4.4-1.5c-0.8,0-1.7,0.1-2.7,0.3c-1,0.2-1.9,0.5-2.8,0.9
	c0.1,0.2,0.2,0.5,0.3,1c0.1,0.5,0.2,0.9,0.3,1.5c0.1,0.5,0.1,1.1,0.2,1.6c0,0.5,0.1,1,0.1,1.4v16.5h-7.3V195c0-1.4-0.1-2.5-0.3-3.4
	c-0.2-0.9-0.6-1.6-1.1-2.1c-0.5-0.5-1.1-0.9-1.9-1.1c-0.7-0.2-1.6-0.3-2.7-0.3c-0.8,0-1.5,0.1-2.2,0.2l-2.6,0.4v22.6h-7.3v-28.8
	c2.3-0.4,4.6-0.8,6.7-1.1c2.2-0.3,4-0.5,5.5-0.5c1.6,0,3.1,0.2,4.6,0.5c1.5,0.3,2.7,0.9,3.7,1.7c1.5-0.6,3.2-1.1,5-1.5
	c1.8-0.4,3.4-0.6,4.9-0.6c1.8,0,3.5,0.2,5.1,0.5c1.6,0.3,2.9,1,4.1,1.9c1.1,0.9,2.1,2.1,2.7,3.7c0.7,1.6,1,3.5,1,5.9v18.4h-7.3V195z
	"/>
<path class="st0" d="M206.1,204.8c0.8,0,1.6-0.1,2.4-0.2c0.9-0.1,1.7-0.3,2.5-0.5c0.8-0.2,1.5-0.5,2.2-0.8c0.7-0.3,1.2-0.7,1.6-1
	l3.2,6.5c-1.6,0.9-3.4,1.6-5.4,2.3c-2.1,0.6-4.5,1-7.4,1c-2.3,0-4.5-0.4-6.4-1.2c-2-0.8-3.7-1.9-5.1-3.3c-1.4-1.4-2.6-3-3.4-4.9
	c-0.8-1.9-1.2-3.9-1.2-6.1c0-2.3,0.4-4.3,1.2-6.3c0.8-1.9,1.9-3.6,3.3-4.9c1.4-1.4,3.1-2.4,5-3.2c1.9-0.8,3.9-1.1,6.1-1.1
	c2.3,0,4.3,0.4,6.2,1.2c1.9,0.8,3.5,2,4.9,3.5c1.4,1.5,2.4,3.4,3.1,5.7c0.7,2.2,1,4.7,0.9,7.6h-23.3c0.5,2,1.5,3.5,3.1,4.5
	c1.5,1,3.5,1.5,5.8,1.5H206.1z M209.5,188.7c-1.4-0.9-3-1.4-5-1.4s-3.7,0.5-5,1.5c-1.4,1-2.3,2.3-2.7,3.9h15.3
	C211.7,191,210.8,189.6,209.5,188.7"/>
</svg>
