<svg id="Layer_1" data-name="Layer 1" xmlns="http://www.w3.org/2000/svg" viewBox="0 0 347.2 365.93"><title>home-security</title><path d="M435,398.77c-23.68-12.53-42.83-28.38-56.93-47.12A146.34,146.34,0,0,1,352,294a170.42,170.42,0,0,1-2.05-58.69l0.36-2.47,2.49-.05c39.61-.86,66.32-16.05,81.75-28.64l1.86-1.52,1.86,1.52c15.43,12.59,42.15,27.79,81.75,28.64l2.49,0.05,0.36,2.47A170.4,170.4,0,0,1,520.81,294a146.36,146.36,0,0,1-26.1,57.64c-14.1,18.74-33.25,34.59-56.93,47.13l-1.38.73Z" transform="translate(-262.8 -100.11)" style="fill:#008656"/><path d="M532.81,224.32L532,220.86l-3.56.12c-31.68,1-55-8.44-68.95-16.57-15.16-8.84-22.92-18.06-23-18.16l0,0,0,0c-0.08.09-7.83,9.32-23,18.16C399.42,212.54,376.1,222,344.41,221l-3.56-.12L340,224.32c-0.33,1.31-7.94,32.58.42,71.79a158,158,0,0,0,28.14,62.41c15.6,20.8,36.77,38.15,63,51.69q2.41,1.25,4.88,2.45,2.47-1.2,4.88-2.45c26.21-13.54,47.38-30.89,63-51.69a158,158,0,0,0,28.14-62.41c8.36-39.21.75-70.48,0.42-71.79m-9.13,70.3a149.25,149.25,0,0,1-26.63,58.79c-14.94,19.86-35.34,36.44-60.66,49.39-25.32-12.95-45.72-29.53-60.66-49.39a149.24,149.24,0,0,1-26.63-58.79,171.81,171.81,0,0,1-1.27-64.74h1.46c46.07,0,74.87-20.24,87.09-31.2,12.22,11,41,31.2,87.09,31.2H525a171.82,171.82,0,0,1-1.27,64.74" transform="translate(-262.8 -100.11)" style="fill:#095738"/><path d="M490.55,139.25a161.93,161.93,0,0,1,19.62,8.36l4.76-9.39a173,173,0,0,0-20.91-8.9Z" transform="translate(-262.8 -100.11)" style="fill:#008656"/><path d="M605.7,254.34a172.29,172.29,0,0,0-6.48-21.77l-9.87,3.67a162,162,0,0,1,6.08,20.43Z" transform="translate(-262.8 -100.11)" style="fill:#008656"/><path d="M532.6,161.35A164.07,164.07,0,0,1,549,175l7.26-7.62a174.48,174.48,0,0,0-17.43-14.56Z" transform="translate(-262.8 -100.11)" style="fill:#008656"/><path d="M566.5,194.63a163.76,163.76,0,0,1,11.74,17.79l9.15-5.21a173.76,173.76,0,0,0-12.5-18.94Z" transform="translate(-262.8 -100.11)" style="fill:#008656"/><path d="M565.88,391.85l8.35,6.41a174.46,174.46,0,0,0,12.58-18.79l-9.11-5.27a163.8,163.8,0,0,1-11.82,17.66" transform="translate(-262.8 -100.11)" style="fill:#008656"/><path d="M609.67,282l-10.51.65c0.21,3.35.31,6.77,0.31,10.14,0,3.74-.13,7.51-0.38,11.2l10.5,0.72c0.27-3.93.41-7.94,0.41-11.92,0-3.6-.11-7.23-0.33-10.79" transform="translate(-262.8 -100.11)" style="fill:#008656"/><path d="M589,350.45l9.85,3.73a172.56,172.56,0,0,0,6.63-21.73L595.2,330a162.52,162.52,0,0,1-6.22,20.4" transform="translate(-262.8 -100.11)" style="fill:#008656"/><path d="M436.79,466a171.84,171.84,0,0,1-124.08-52.45,5.27,5.27,0,0,1,7.55-7.35,162.46,162.46,0,0,0,233.06,0,5.27,5.27,0,0,1,7.55,7.35A171.84,171.84,0,0,1,436.79,466" transform="translate(-262.8 -100.11)" style="fill:#008656"/><path d="M376.69,138.46a6.12,6.12,0,1,1-6.12-6.12,6.12,6.12,0,0,1,6.12,6.12" transform="translate(-262.8 -100.11)" style="fill:#008656"/><path d="M352.65,151.18a6.12,6.12,0,1,1-6.12-6.12,6.12,6.12,0,0,1,6.12,6.12" transform="translate(-262.8 -100.11)" style="fill:#008656"/><path d="M331,167.63a6.12,6.12,0,1,1-6.12-6.12,6.12,6.12,0,0,1,6.12,6.12" transform="translate(-262.8 -100.11)" style="fill:#008656"/><path d="M312.23,187.34a6.12,6.12,0,1,1-6.12-6.12,6.12,6.12,0,0,1,6.12,6.12" transform="translate(-262.8 -100.11)" style="fill:#008656"/><path d="M296.9,209.81a6.12,6.12,0,1,1-6.12-6.12,6.12,6.12,0,0,1,6.12,6.12" transform="translate(-262.8 -100.11)" style="fill:#008656"/><path d="M285.39,234.46a6.12,6.12,0,1,1-6.12-6.12,6.12,6.12,0,0,1,6.12,6.12" transform="translate(-262.8 -100.11)" style="fill:#008656"/><path d="M278,260.66a6.12,6.12,0,1,1-6.12-6.12,6.12,6.12,0,0,1,6.12,6.12" transform="translate(-262.8 -100.11)" style="fill:#008656"/><path d="M275,287.68a6.12,6.12,0,1,1-6.12-6.12,6.12,6.12,0,0,1,6.12,6.12" transform="translate(-262.8 -100.11)" style="fill:#008656"/><path d="M276.4,314.86a6.12,6.12,0,1,1-6.12-6.12,6.12,6.12,0,0,1,6.12,6.12" transform="translate(-262.8 -100.11)" style="fill:#008656"/><path d="M282.11,341.46a6.12,6.12,0,1,1-6.12-6.12,6.12,6.12,0,0,1,6.12,6.12" transform="translate(-262.8 -100.11)" style="fill:#008656"/><path d="M292.08,366.77a6.12,6.12,0,1,1-6.12-6.12,6.12,6.12,0,0,1,6.12,6.12" transform="translate(-262.8 -100.11)" style="fill:#008656"/><path d="M306,390.14A6.12,6.12,0,1,1,299.9,384a6.12,6.12,0,0,1,6.12,6.12" transform="translate(-262.8 -100.11)" style="fill:#008656"/><path d="M479.32,145.89a8.8,8.8,0,0,0-2,.13,11.56,11.56,0,0,0,1.32-1.75,9.3,9.3,0,0,0,1.06-7.62,8.86,8.86,0,0,0-2,.55,11.52,11.52,0,0,0,.92-2,9.29,9.29,0,0,0-.57-7.68,8.85,8.85,0,0,0-1.79,1,11.48,11.48,0,0,0,.49-2.14,9.3,9.3,0,0,0-2.17-7.39,8.91,8.91,0,0,0-1.55,1.31,11.45,11.45,0,0,0,0-2.19,9.3,9.3,0,0,0-3.68-6.76,8.85,8.85,0,0,0-1.24,1.6,11.61,11.61,0,0,0-.44-2.15,9.3,9.3,0,0,0-5-5.84,8.83,8.83,0,0,0-.88,1.83,11.57,11.57,0,0,0-.88-2,9.3,9.3,0,0,0-6.14-4.65,9,9,0,0,0-.48,4.1c-0.3-.22-0.63-0.44-1-0.66a9.3,9.3,0,0,0-7.64-1,9.3,9.3,0,0,0,4.4,6.32c0.36,0.21.7,0.4,1,.56a9,9,0,0,0-3.41,2.33,9.21,9.21,0,0,0,5.62,3.14,9.22,9.22,0,0,0,4.8,4.19,9.21,9.21,0,0,0,3.81,5.11,9.21,9.21,0,0,0,2.65,5.79,9.22,9.22,0,0,0,1.37,6.22,9.22,9.22,0,0,0,0,6.37,9.22,9.22,0,0,0-1.32,6.23,9.21,9.21,0,0,0-2.6,5.82,9.22,9.22,0,0,0-3.77,5.14,9.21,9.21,0,0,0-4.76,4.23,9.21,9.21,0,0,0-5.55,3.13,9.85,9.85,0,0,0-9.51,6.5,2.21,2.21,0,0,1-4.24,0,9.86,9.86,0,0,0-9.51-6.5,9.22,9.22,0,0,0-5.55-3.13,9.21,9.21,0,0,0-4.76-4.23,9.21,9.21,0,0,0-3.77-5.14,9.21,9.21,0,0,0-2.6-5.82,9.21,9.21,0,0,0-1.32-6.23,9.21,9.21,0,0,0,0-6.37,9.22,9.22,0,0,0,1.37-6.22,9.22,9.22,0,0,0,2.65-5.79,9.21,9.21,0,0,0,3.81-5.11,9.21,9.21,0,0,0,4.8-4.19,9.21,9.21,0,0,0,5.62-3.14,9,9,0,0,0-3.4-2.33c0.34-.16.68-0.35,1-0.56a9.3,9.3,0,0,0,4.4-6.32,9.3,9.3,0,0,0-7.64,1c-0.36.21-.68,0.43-1,0.66a9,9,0,0,0-.48-4.1,9.29,9.29,0,0,0-6.14,4.65,11.43,11.43,0,0,0-.88,2,8.83,8.83,0,0,0-.88-1.83,9.3,9.3,0,0,0-5,5.84,11.44,11.44,0,0,0-.44,2.15,8.9,8.9,0,0,0-1.24-1.6,9.3,9.3,0,0,0-3.68,6.76,11.45,11.45,0,0,0,0,2.19A8.88,8.88,0,0,0,398.2,119a9.3,9.3,0,0,0-2.17,7.39,11.48,11.48,0,0,0,.49,2.14,8.88,8.88,0,0,0-1.79-1,9.3,9.3,0,0,0-.57,7.68,11.45,11.45,0,0,0,.92,2,8.84,8.84,0,0,0-2-.55,9.3,9.3,0,0,0,1.06,7.63,11.49,11.49,0,0,0,1.32,1.75,8.79,8.79,0,0,0-2-.13,9.3,9.3,0,0,0,2.65,7.23,11.47,11.47,0,0,0,1.66,1.43,8.84,8.84,0,0,0-2,.3,9.29,9.29,0,0,0,4.11,6.51,11.45,11.45,0,0,0,1.92,1,8.88,8.88,0,0,0-1.9.72,9.3,9.3,0,0,0,5.39,5.5,11.58,11.58,0,0,0,2.1.62,8.83,8.83,0,0,0-1.7,1.1,9.3,9.3,0,0,0,6.43,4.24,11.49,11.49,0,0,0,2.18.16,8.77,8.77,0,0,0-1.43,1.44,9.3,9.3,0,0,0,7.17,2.79,11.47,11.47,0,0,0,2.17-.3,8.82,8.82,0,0,0-1.1,1.7,9.3,9.3,0,0,0,7.6,1.22,10.19,10.19,0,0,0,3.2-1.41,7.93,7.93,0,0,1,8.93,0,10.19,10.19,0,0,0,3.2,1.41,9.3,9.3,0,0,0,7.6-1.22,8.86,8.86,0,0,0-1.1-1.7,11.46,11.46,0,0,0,2.17.3,9.3,9.3,0,0,0,7.17-2.79,8.8,8.8,0,0,0-1.43-1.44,11.5,11.5,0,0,0,2.18-.16,9.3,9.3,0,0,0,6.43-4.24,8.84,8.84,0,0,0-1.7-1.1,11.56,11.56,0,0,0,2.1-.62,9.3,9.3,0,0,0,5.39-5.5,8.84,8.84,0,0,0-1.9-.72,11.5,11.5,0,0,0,1.92-1,9.29,9.29,0,0,0,4.11-6.51,8.84,8.84,0,0,0-2-.3,11.47,11.47,0,0,0,1.66-1.43,9.29,9.29,0,0,0,2.65-7.23M420.41,166a7.86,7.86,0,0,1,3.84,3.14,6.5,6.5,0,0,1,1.26,4.8,6.51,6.51,0,0,1-3.84-3.14,7.86,7.86,0,0,1-1.25-4.8m-5.2-4a7.86,7.86,0,0,1,3.09,3.87,6.51,6.51,0,0,1,.22,5,6.5,6.5,0,0,1-3.09-3.88,7.86,7.86,0,0,1-.22-5m-4.23-5a7.86,7.86,0,0,1,2.21,4.44,6.51,6.51,0,0,1-.83,4.89,6.5,6.5,0,0,1-2.21-4.44,7.86,7.86,0,0,1,.83-4.89m-3.08-5.81a7.86,7.86,0,0,1,1.22,4.8,6.51,6.51,0,0,1-1.84,4.61,6.51,6.51,0,0,1-1.22-4.81,7.86,7.86,0,0,1,1.84-4.6m-5.78-9.45a7.86,7.86,0,0,1,3.58-3.43,7.85,7.85,0,0,1-.87,4.88,6.51,6.51,0,0,1-3.58,3.44,6.51,6.51,0,0,1,.87-4.89m-1.54-2.74a6.51,6.51,0,0,1,1.88-4.59,7.86,7.86,0,0,1,4.22-2.6,7.86,7.86,0,0,1-1.87,4.59,6.51,6.51,0,0,1-4.22,2.61m2.76,10a7.85,7.85,0,0,1,2.77-4.11,7.85,7.85,0,0,1,.18,5,6.51,6.51,0,0,1-2.77,4.11,6.51,6.51,0,0,1-.18-5m2.86-19.23a6.51,6.51,0,0,1-4.68,1.66,6.51,6.51,0,0,1,2.8-4.09,7.85,7.85,0,0,1,4.67-1.66,7.85,7.85,0,0,1-2.8,4.09m16.54-17.82a7.86,7.86,0,0,1-4.68,1.63,6.51,6.51,0,0,1-4.75-1.44,6.51,6.51,0,0,1,4.69-1.62,7.85,7.85,0,0,1,4.74,1.44m-2.45-6.94a7.86,7.86,0,0,1,4.83-1.12,7.86,7.86,0,0,1-3.24,3.75,6.51,6.51,0,0,1-4.83,1.12,6.51,6.51,0,0,1,3.24-3.75m-7,.61a7.86,7.86,0,0,1,3.62-3.39,7.86,7.86,0,0,1-.93,4.87,6.5,6.5,0,0,1-3.62,3.39,6.51,6.51,0,0,1,.93-4.87m-1,9.48a7.86,7.86,0,0,1,4.94.41A7.86,7.86,0,0,1,413,118a6.51,6.51,0,0,1-4.94-.41,6.51,6.51,0,0,1,4.24-2.58m-5.66-3.77a7.85,7.85,0,0,1,2.82-4.07,7.85,7.85,0,0,1,.12,5,6.51,6.51,0,0,1-2.83,4.08,6.51,6.51,0,0,1-.11-5m1,9.47a7.85,7.85,0,0,1,4.92-.64,7.86,7.86,0,0,1-3.6,3.41,6.51,6.51,0,0,1-4.92.64,6.51,6.51,0,0,1,3.6-3.41m-6.33-2.5a7.85,7.85,0,0,1,1.9-4.58,7.85,7.85,0,0,1,1.16,4.82,6.51,6.51,0,0,1-1.9,4.58,6.51,6.51,0,0,1-1.16-4.82m-2.81,3.06a7.86,7.86,0,0,1,2.15,4.47,6.52,6.52,0,0,1-.9,4.88,6.5,6.5,0,0,1-2.15-4.47,7.85,7.85,0,0,1,.9-4.87m-3,8.46a7.86,7.86,0,0,1,3,3.92,6.51,6.51,0,0,1,.15,5,6.51,6.51,0,0,1-3-3.92,7.85,7.85,0,0,1-.15-5m-1.15,8.9a7.85,7.85,0,0,1,3.79,3.19,6.51,6.51,0,0,1,1.19,4.82,6.51,6.51,0,0,1-3.8-3.19,7.86,7.86,0,0,1-1.19-4.81M397.28,152a7.85,7.85,0,0,1-2.18-4.45,7.85,7.85,0,0,1,4.38,2.32,6.51,6.51,0,0,1,2.18,4.46,6.51,6.51,0,0,1-4.39-2.32m3.51,8a7.86,7.86,0,0,1-3.07-3.89,7.86,7.86,0,0,1,4.77,1.34,6.51,6.51,0,0,1,3.07,3.9,6.51,6.51,0,0,1-4.77-1.34m5.12,7.11a7.86,7.86,0,0,1-3.82-3.16,7.86,7.86,0,0,1,4.95.31,6.51,6.51,0,0,1,3.82,3.16,6.51,6.51,0,0,1-5-.31m6.5,5.87a7.86,7.86,0,0,1-4.4-2.29,7.85,7.85,0,0,1,4.9-.74,6.51,6.51,0,0,1,4.4,2.29,6.51,6.51,0,0,1-4.9.74m7.59,4.37a7.85,7.85,0,0,1-4.78-1.31,7.86,7.86,0,0,1,4.63-1.76,6.51,6.51,0,0,1,4.79,1.31,6.51,6.51,0,0,1-4.64,1.76m8.34,2.67a7.87,7.87,0,0,1-4.95-.27,7.86,7.86,0,0,1,4.16-2.7,6.51,6.51,0,0,1,5,.27,6.51,6.51,0,0,1-4.16,2.7m0.25-6.8a7.85,7.85,0,0,1-2.24-4.42,7.85,7.85,0,0,1,4.41,2.26,6.51,6.51,0,0,1,2.24,4.43,6.51,6.51,0,0,1-4.42-2.26m49.88-34.63a7.86,7.86,0,0,1-1.19,4.81,6.51,6.51,0,0,1-3.8,3.19,6.51,6.51,0,0,1,1.19-4.82,7.85,7.85,0,0,1,3.8-3.19m-1.15-8.9a7.85,7.85,0,0,1-.15,5,6.51,6.51,0,0,1-3,3.92,6.51,6.51,0,0,1,.15-5,7.86,7.86,0,0,1,3-3.92m-5.15-4a7.86,7.86,0,0,1,2.15-4.47,7.86,7.86,0,0,1,.9,4.87,6.52,6.52,0,0,1-2.15,4.47,6.5,6.5,0,0,1-.9-4.88M468,143.11a7.84,7.84,0,0,1-.86-4.88,7.86,7.86,0,0,1,3.57,3.43,6.51,6.51,0,0,1,.87,4.89,6.51,6.51,0,0,1-3.58-3.44m1.31,10.75a6.51,6.51,0,0,1-2.77-4.11,7.85,7.85,0,0,1,.18-5,7.85,7.85,0,0,1,2.77,4.11,6.51,6.51,0,0,1-.18,5M468,136.32a7.86,7.86,0,0,1-1.87-4.59,7.86,7.86,0,0,1,4.22,2.6,6.5,6.5,0,0,1,1.88,4.59,6.51,6.51,0,0,1-4.22-2.61m1.58-22.7a7.86,7.86,0,0,1,1.9,4.58,6.51,6.51,0,0,1-1.16,4.82,6.51,6.51,0,0,1-1.9-4.58,7.86,7.86,0,0,1,1.16-4.82m-6.22-6.47a7.84,7.84,0,0,1,2.83,4.07,6.5,6.5,0,0,1-.12,5,6.51,6.51,0,0,1-2.83-4.08,7.86,7.86,0,0,1,.11-5m-7.44-5a7.86,7.86,0,0,1,3.62,3.39,6.51,6.51,0,0,1,.93,4.87,6.51,6.51,0,0,1-3.62-3.39,7.86,7.86,0,0,1-.93-4.87m-5,5.4a7.86,7.86,0,0,1-3.24-3.75,7.86,7.86,0,0,1,4.83,1.12,6.51,6.51,0,0,1,3.24,3.75,6.51,6.51,0,0,1-4.83-1.12m3.82,5.93a7.86,7.86,0,0,1-4.68-1.63,7.85,7.85,0,0,1,4.74-1.44A6.51,6.51,0,0,1,459.5,112a6.51,6.51,0,0,1-4.75,1.44m0.84,1.94a7.86,7.86,0,0,1,4.94-.41,6.51,6.51,0,0,1,4.24,2.58,6.51,6.51,0,0,1-4.94.41,7.86,7.86,0,0,1-4.23-2.58m4.65,4.65a7.85,7.85,0,0,1,4.92.64,6.51,6.51,0,0,1,3.6,3.41,6.51,6.51,0,0,1-4.92-.64,7.87,7.87,0,0,1-3.6-3.41m3.57,5.52a7.85,7.85,0,0,1,4.67,1.66,6.51,6.51,0,0,1,2.8,4.09,6.51,6.51,0,0,1-4.68-1.66,7.86,7.86,0,0,1-2.8-4.09m1.1,25.54a7.85,7.85,0,0,1,1.84,4.6,6.51,6.51,0,0,1-1.22,4.81,6.51,6.51,0,0,1-1.84-4.61,7.85,7.85,0,0,1,1.22-4.8m-5.29,10.25a7.87,7.87,0,0,1,2.21-4.44,7.85,7.85,0,0,1,.83,4.89,6.5,6.5,0,0,1-2.21,4.44,6.52,6.52,0,0,1-.83-4.89m-5.12,4.46a7.85,7.85,0,0,1,3.09-3.87,7.86,7.86,0,0,1-.21,5,6.51,6.51,0,0,1-3.09,3.88,6.51,6.51,0,0,1,.22-5m-5.95,3.29A7.86,7.86,0,0,1,452.4,166a7.86,7.86,0,0,1-1.25,4.8,6.51,6.51,0,0,1-3.84,3.14,6.51,6.51,0,0,1,1.26-4.8m-6.5,2a7.86,7.86,0,0,1,4.41-2.26,7.85,7.85,0,0,1-2.23,4.42,6.51,6.51,0,0,1-4.42,2.26,6.5,6.5,0,0,1,2.24-4.43m2.42,9a6.51,6.51,0,0,1-4.16-2.7,6.5,6.5,0,0,1,5-.27,7.85,7.85,0,0,1,4.16,2.7,7.86,7.86,0,0,1-4.95.27m8.34-2.67a6.51,6.51,0,0,1-4.64-1.76,6.51,6.51,0,0,1,4.79-1.31,7.85,7.85,0,0,1,4.63,1.76,7.85,7.85,0,0,1-4.78,1.31m7.59-4.37a6.51,6.51,0,0,1-4.91-.74,6.51,6.51,0,0,1,4.4-2.29,7.85,7.85,0,0,1,4.9.74,7.86,7.86,0,0,1-4.4,2.29m6.5-5.87a6.52,6.52,0,0,1-5,.31,6.51,6.51,0,0,1,3.82-3.16,7.86,7.86,0,0,1,4.95-.31,7.87,7.87,0,0,1-3.82,3.16m8.18-11A7.86,7.86,0,0,1,472,160a6.51,6.51,0,0,1-4.78,1.34,6.51,6.51,0,0,1,3.07-3.9,7.86,7.86,0,0,1,4.77-1.34m-3.95-1.81a6.51,6.51,0,0,1,2.18-4.46,7.84,7.84,0,0,1,4.38-2.32,7.87,7.87,0,0,1-2.18,4.45,6.51,6.51,0,0,1-4.39,2.32" transform="translate(-262.8 -100.11)" style="fill:#008656"/><path d="M412.16,144.33v1.09a66.14,66.14,0,0,0,4.69,7.76H413a3.4,3.4,0,0,0,3.17,1.6h40.54a3.4,3.4,0,0,0,3.17-1.6h-3.55a80.11,80.11,0,0,0,4.91-8.33h1.95v-3.06H452.56a28.58,28.58,0,0,1-7-36,41.84,41.84,0,0,0-33.38,38.52m0.82,0a38.78,38.78,0,0,1,18.18-5.7v5.7H413Zm38.64-1.24-0.92,1.24h-17v-5.77a38.78,38.78,0,0,1,18,4.53m-3.49-3.36A40.6,40.6,0,0,0,414,141.92a40.29,40.29,0,0,1,28.67-33.75,30.11,30.11,0,0,0,5.49,31.58" transform="translate(-262.8 -100.11)" style="fill:#008656"/><path d="M434.6,168.22h3.6a3.4,3.4,0,0,0,3.17-1.6h-9.94a3.4,3.4,0,0,0,3.17,1.6" transform="translate(-262.8 -100.11)" style="fill:#008656"/><path d="M448.61,163.26H424.2a3.4,3.4,0,0,0,3.17,1.6h18.07a3.4,3.4,0,0,0,3.17-1.6" transform="translate(-262.8 -100.11)" style="fill:#008656"/><path d="M454.12,159.9H418.68a3.4,3.4,0,0,0,3.17,1.6h29.09a3.4,3.4,0,0,0,3.17-1.6" transform="translate(-262.8 -100.11)" style="fill:#008656"/><path d="M457.48,156.54H415.33a3.4,3.4,0,0,0,3.17,1.6h35.81a3.4,3.4,0,0,0,3.17-1.6" transform="translate(-262.8 -100.11)" style="fill:#008656"/><path d="M482.32,314.32H390.48V252.25h91.84v62.08Zm-86.88-5h81.92V257.21H395.44v52.15Z" transform="translate(-262.8 -100.11)" style="fill:#fff"/><path d="M493.61,249.66H379.19l57.21-34.93Zm-96.77-5H476L436.4,220.55Z" transform="translate(-262.8 -100.11)" style="fill:#fff"/><path d="M450.59,275.59h-1.31v-2.74a12.88,12.88,0,0,0-25.75,0v2.74h-1.31a5,5,0,0,0-5,5v19.62a5,5,0,0,0,5,5h28.37a5,5,0,0,0,5-5V280.55a5,5,0,0,0-5-5m-22.1-2.74a7.91,7.91,0,0,1,15.82,0v2.74H428.49v-2.74Z" transform="translate(-262.8 -100.11)" style="fill:#fff"/><path d="M450.59,305.57H422.22a5.41,5.41,0,0,1-5.4-5.4V280.55a5.41,5.41,0,0,1,5.4-5.4h0.87v-2.3a13.31,13.31,0,0,1,26.63,0v2.3h0.87a5.41,5.41,0,0,1,5.4,5.4v19.62a5.41,5.41,0,0,1-5.4,5.4M422.22,276a4.53,4.53,0,0,0-4.52,4.53v19.62a4.53,4.53,0,0,0,4.52,4.52h28.37a4.53,4.53,0,0,0,4.52-4.52V280.55a4.53,4.53,0,0,0-4.52-4.53h-1.75v-3.17a12.44,12.44,0,0,0-24.88,0V276h-1.75Zm22.54,0h-16.7v-3.17a8.35,8.35,0,0,1,16.7,0V276Zm-15.83-.87h14.95v-2.3a7.47,7.47,0,0,0-14.95,0v2.3Z" transform="translate(-262.8 -100.11)" style="fill:#008656"/><path d="M441.43,287.63a5,5,0,1,0-6.89,4.67v6.16a1.86,1.86,0,0,0,3.72,0V292.3a5,5,0,0,0,3.17-4.67" transform="translate(-262.8 -100.11)" style="fill:#008656"/><path d="M295.49,290.56a5.54,5.54,0,0,0-.35,1q-0.13.52-.21,1.07a5.81,5.81,0,0,0-.07,1.06,5.14,5.14,0,0,0,.14,1.1,2.44,2.44,0,0,0,.37.84,1.71,1.71,0,0,0,.6.53,1.66,1.66,0,0,0,.83.17,1.55,1.55,0,0,0,.72-0.18,1.58,1.58,0,0,0,.52-0.48,2.94,2.94,0,0,0,.37-0.78c0.1-.31.2-0.66,0.31-1l0.3-1.14a5.43,5.43,0,0,1,1.75-3,5.11,5.11,0,0,1,3.16-1.1,4.72,4.72,0,0,1,1.91.32,4.2,4.2,0,0,1,1.52,1,4.78,4.78,0,0,1,1,1.6,6.31,6.31,0,0,1,.4,2.07,8.57,8.57,0,0,1-.07,1.34,8.45,8.45,0,0,1-.27,1.32q-0.19.64-.42,1.23a6.55,6.55,0,0,1-.67,1.23l-3-1a6.55,6.55,0,0,0,1-2,6.42,6.42,0,0,0,.26-2,3.63,3.63,0,0,0-.13-0.87,2.27,2.27,0,0,0-.32-0.7,1.44,1.44,0,0,0-.48-0.45,1.19,1.19,0,0,0-.63-0.14,1.41,1.41,0,0,0-1.07.49,4,4,0,0,0-.68,1.57l-0.3,1.15a10.69,10.69,0,0,1-.63,1.68,5.33,5.33,0,0,1-1,1.43,4.62,4.62,0,0,1-1.45,1,5.71,5.71,0,0,1-4.17.05,4.51,4.51,0,0,1-1.62-1.13,5.08,5.08,0,0,1-1-1.74,7.28,7.28,0,0,1-.4-2.21,9.9,9.9,0,0,1,.06-1.45A10.19,10.19,0,0,1,292,291a10.73,10.73,0,0,1,.41-1.28,6.5,6.5,0,0,1,.67-1.23l3,1a6.73,6.73,0,0,0-.61,1" transform="translate(-262.8 -100.11)" style="fill:#008656"/><path d="M302.11,312.79a1.54,1.54,0,0,0,.29-1.31,3.59,3.59,0,0,0-.22-0.8,2.76,2.76,0,0,0-.39-0.71l-0.35.21-0.34.09-0.61.14-0.55.09-6.46.91-0.39-2.76,6.38-.9a5.83,5.83,0,0,0,1.17-.27,1.77,1.77,0,0,0,.66-0.39,1.07,1.07,0,0,0,.28-0.56,2.45,2.45,0,0,0,0-.8,2.88,2.88,0,0,0-.17-0.67l-0.21-.62-8.54,1.2-0.39-2.77,11.28-1.58q0.46,1.26.79,2.27a10.46,10.46,0,0,1,.44,1.75,6.43,6.43,0,0,1,0,1.55,2.47,2.47,0,0,1-.42,1.24,9.19,9.19,0,0,1,.74,1.44,6.31,6.31,0,0,1,.46,1.57,6.63,6.63,0,0,1,0,1.7,3.2,3.2,0,0,1-.56,1.49,3.68,3.68,0,0,1-1.35,1.13,7.12,7.12,0,0,1-2.29.66l-7.15,1-0.39-2.77,6.39-.9a3.2,3.2,0,0,0,1.83-.65" transform="translate(-262.8 -100.11)" style="fill:#008656"/><path d="M295.68,323a4.42,4.42,0,0,1,.28-1.61,3.41,3.41,0,0,1,.93-1.31,4,4,0,0,1,1.72-.84,4.19,4.19,0,0,1,1.79-.08,3.49,3.49,0,0,1,1.47.64A4.15,4.15,0,0,1,303,321a6.45,6.45,0,0,1,.68,1.72q0.09,0.38.18,0.84a6.87,6.87,0,0,1,.1.87,1.23,1.23,0,0,0,.78-0.83,3,3,0,0,0-.07-1.47,4.3,4.3,0,0,0-.26-0.73,8.74,8.74,0,0,0-.41-0.78,7.31,7.31,0,0,0-.5-0.75q-0.27-.36-0.83-0.95l3.43-.47a7.5,7.5,0,0,1,1,1.41,7.09,7.09,0,0,1,.71,1.82,5.93,5.93,0,0,1,.18,1.76,3.53,3.53,0,0,1-1.63,2.82,6.18,6.18,0,0,1-2,.85l-6.48,1.6a9.89,9.89,0,0,1-1.22-1.93,10.65,10.65,0,0,1-.74-2.06,7.29,7.29,0,0,1-.22-1.75m5.53,1.44a4.72,4.72,0,0,0-.12-0.79,4.35,4.35,0,0,0-.26-0.77,2.33,2.33,0,0,0-.36-0.57A1,1,0,0,0,300,322a1,1,0,0,0-.55,0,0.9,0.9,0,0,0-.71.71,2.89,2.89,0,0,0,.06,1.36,4.83,4.83,0,0,0,.28.81,4.43,4.43,0,0,0,.31.6l1.83-.45c0-.11,0-0.3,0-0.59" transform="translate(-262.8 -100.11)" style="fill:#008656"/><path d="M307.73,333.58l-0.13-.37c-0.06-.16-0.12-0.32-0.2-0.49s-0.19-.4-0.34-0.7-0.09-.28.18,0.06L299,334.73l-0.86-2.66,10.77-3.48q0.32,0.55.56,1t0.45,0.91c0.14,0.3.27,0.6,0.39,0.89s0.22,0.55.3,0.79l0.62,1.91-3,1Z" transform="translate(-262.8 -100.11)" style="fill:#008656"/><path d="M312,336.61l3.79-1.5,1,2.6-3.79,1.5,1.32,3.35-2.87,1.13-1.32-3.35-3.51,1.39a3.88,3.88,0,0,0-.77.39,1.12,1.12,0,0,0-.38.39,1,1,0,0,0-.08.5,2.48,2.48,0,0,0,.18.71l0.81,2-2.87,1.13-0.9-2.29a7.29,7.29,0,0,1-.47-1.7,2.94,2.94,0,0,1,.14-1.41,2.64,2.64,0,0,1,.83-1.13,5.82,5.82,0,0,1,1.57-.87l4.43-1.75-0.65-1.66,2.87-1.13Z" transform="translate(-262.8 -100.11)" style="fill:#008656"/><polygon points="59.05 247.29 60.44 249.79 54.78 252.93 57.74 258.27 63.4 255.13 64.79 257.65 50.31 265.67 48.92 263.16 54.94 259.82 51.98 254.48 45.96 257.82 44.57 255.32 59.05 247.29" style="fill:#008656"/><path d="M316.92,371.1A5.48,5.48,0,0,1,317,369a6,6,0,0,1,.95-2,7.08,7.08,0,0,1,1.77-1.72,6.85,6.85,0,0,1,2.22-1,6.35,6.35,0,0,1,2.25-.18,5.25,5.25,0,0,1,2,.64,4.93,4.93,0,0,1,2.4,3.47,5.27,5.27,0,0,1-.12,2.14,6.34,6.34,0,0,1-1,2,6.85,6.85,0,0,1-1.75,1.71,7.05,7.05,0,0,1-2.23,1,6,6,0,0,1-2.24.17,5.48,5.48,0,0,1-2-.66,4.94,4.94,0,0,1-2.4-3.47m4.23,0.88a2.4,2.4,0,0,0,.94.28,2.65,2.65,0,0,0,1-.12,4,4,0,0,0,1.89-1.31,2.69,2.69,0,0,0,.48-0.92,2.54,2.54,0,0,0,.08-1,2.31,2.31,0,0,0-1.16-1.67,2.53,2.53,0,0,0-.95-0.27,2.74,2.74,0,0,0-1,.12,4,4,0,0,0-1.89,1.31,2.69,2.69,0,0,0-.48.92,2.39,2.39,0,0,0-.07,1,2.4,2.4,0,0,0,1.16,1.67" transform="translate(-262.8 -100.11)" style="fill:#008656"/><path d="M336.38,382.88a1.54,1.54,0,0,0-.46-1.27,3.62,3.62,0,0,0-.62-0.55,2.72,2.72,0,0,0-.71-0.39c-0.1.22-.16,0.35-0.18,0.37l-0.23.26-0.44.44-0.41.37-5,4.25-1.82-2.12,4.89-4.2a5.86,5.86,0,0,0,.84-0.86,1.75,1.75,0,0,0,.35-0.69,1.07,1.07,0,0,0-.06-0.62,2.48,2.48,0,0,0-.43-0.67,2.8,2.8,0,0,0-.51-0.47l-0.51-.41L324.58,382l-1.82-2.12,8.64-7.43q1.06,0.81,1.89,1.49a10.6,10.6,0,0,1,1.31,1.24,6.41,6.41,0,0,1,.86,1.29,2.48,2.48,0,0,1,.32,1.27,9.45,9.45,0,0,1,1.4.81,6.43,6.43,0,0,1,1.23,1.07,6.7,6.7,0,0,1,.94,1.42,3.19,3.19,0,0,1,.33,1.56,3.67,3.67,0,0,1-.53,1.68,7.07,7.07,0,0,1-1.57,1.8l-5.48,4.71-1.82-2.12,4.89-4.2a3.23,3.23,0,0,0,1.19-1.53" transform="translate(-262.8 -100.11)" style="fill:#008656"/><path d="M341,394.94a6.28,6.28,0,0,0,.69.38,3.53,3.53,0,0,0,.67.24,2.88,2.88,0,0,0,.91,0l-1.15,3.05a9.73,9.73,0,0,1-2.13-.63,7.07,7.07,0,0,1-2-1.41,5,5,0,0,1-1.24-1.82,5.32,5.32,0,0,1-.37-2.12,5.87,5.87,0,0,1,.52-2.19,7.58,7.58,0,0,1,3.38-3.56,6.14,6.14,0,0,1,2.16-.64,5.14,5.14,0,0,1,2.08.22,4.85,4.85,0,0,1,3,2.86,4.59,4.59,0,0,1,.24,2.15,6.6,6.6,0,0,1-.77,2.35,11.14,11.14,0,0,1-2,2.55l-5.39-5.11a1.94,1.94,0,0,0-.25,1.46,2.85,2.85,0,0,0,.91,1.56l0.18,0.17a3.78,3.78,0,0,0,.6.46m1.77-5.88a2.15,2.15,0,0,0-1.21.24l3.18,3a1.8,1.8,0,0,0,.23-1.27,2.31,2.31,0,0,0-.76-1.35,2.15,2.15,0,0,0-1.45-.64" transform="translate(-262.8 -100.11)" style="fill:#008656"/><path d="M351.79,403.33a5.43,5.43,0,0,0,.57.88c0.22,0.28.46,0.56,0.71,0.83a5.76,5.76,0,0,0,.8.7,5.05,5.05,0,0,0,1,.56,2.44,2.44,0,0,0,.89.22,1.69,1.69,0,0,0,.79-0.15,1.64,1.64,0,0,0,.64-0.55,1.54,1.54,0,0,0,.3-0.68,1.59,1.59,0,0,0-.06-0.7,3,3,0,0,0-.39-0.77c-0.18-.27-0.39-0.57-0.63-0.89l-0.71-.94a5.43,5.43,0,0,1-1.27-3.22,5.1,5.1,0,0,1,1.08-3.17,4.73,4.73,0,0,1,1.43-1.31,4.2,4.2,0,0,1,1.74-.57,4.77,4.77,0,0,1,1.87.2,6.36,6.36,0,0,1,1.88,1,8.66,8.66,0,0,1,1.89,1.91q0.39,0.54.7,1.09a6.49,6.49,0,0,1,.55,1.28l-2.69,1.74a6.58,6.58,0,0,0-1-2,6.44,6.44,0,0,0-1.4-1.43,3.71,3.71,0,0,0-.77-0.44,2.3,2.3,0,0,0-.75-0.18,1.48,1.48,0,0,0-.65.1,1.18,1.18,0,0,0-.5.41,1.41,1.41,0,0,0-.27,1.15,4,4,0,0,0,.82,1.5l0.73,0.95a10.57,10.57,0,0,1,.94,1.53,5.33,5.33,0,0,1,.52,1.65,4.63,4.63,0,0,1-.1,1.76,5.22,5.22,0,0,1-.89,1.82,5.13,5.13,0,0,1-1.64,1.5,4.49,4.49,0,0,1-1.89.58,5.14,5.14,0,0,1-2-.27,7.25,7.25,0,0,1-2-1,9.82,9.82,0,0,1-1.1-.94,10.5,10.5,0,0,1-.95-1.07,10.61,10.61,0,0,1-.75-1.11,6.47,6.47,0,0,1-.56-1.29l2.68-1.74a6.79,6.79,0,0,0,.44,1.11" transform="translate(-262.8 -100.11)" style="fill:#008656"/><path d="M365.72,413.47a6.62,6.62,0,0,0,.75.22,3.58,3.58,0,0,0,.71.1,3,3,0,0,0,.9-0.16l-0.48,3.23a9.59,9.59,0,0,1-2.21-.16,7,7,0,0,1-2.29-.95,5,5,0,0,1-1.6-1.51,5.28,5.28,0,0,1-.81-2,5.86,5.86,0,0,1,0-2.26,7.6,7.6,0,0,1,2.55-4.19,6.13,6.13,0,0,1,2-1.08,5.11,5.11,0,0,1,2.08-.23,4.86,4.86,0,0,1,3.54,2.17,4.6,4.6,0,0,1,.69,2,6.62,6.62,0,0,1-.26,2.46,11.2,11.2,0,0,1-1.4,2.91l-6.36-3.85a2,2,0,0,0,.07,1.49,2.86,2.86,0,0,0,1.22,1.33l0.21,0.13a3.81,3.81,0,0,0,.68.32m0.48-6.12a2.15,2.15,0,0,0-1.13.49l3.75,2.28a1.8,1.8,0,0,0,0-1.29,2.32,2.32,0,0,0-1-1.17,2.15,2.15,0,0,0-1.55-.31" transform="translate(-262.8 -100.11)" style="fill:#008656"/><path d="M373.45,411.84a6,6,0,0,1,1.87-1.24,5.13,5.13,0,0,1,2.08-.4,4.78,4.78,0,0,1,2.09.53,6.26,6.26,0,0,1,1.52,1,7.83,7.83,0,0,1,1.2,1.5l-2.34,2.15a5.24,5.24,0,0,0-.78-1.08,3.57,3.57,0,0,0-1-.68,2.49,2.49,0,0,0-1-.28,2.14,2.14,0,0,0-1,.18,2.79,2.79,0,0,0-.86.6,4.22,4.22,0,0,0-1.08,2.16,2.69,2.69,0,0,0,0,1,2.18,2.18,0,0,0,.44.87,2.48,2.48,0,0,0,.83.65,3.76,3.76,0,0,0,1.1.37,4.35,4.35,0,0,0,1.35,0l-0.34,3.19a7.47,7.47,0,0,1-1.91-.07,6.52,6.52,0,0,1-1.74-.61,4.81,4.81,0,0,1-1.68-1.36,5.2,5.2,0,0,1-.92-1.9,5.91,5.91,0,0,1-.12-2.23,7.76,7.76,0,0,1,2.19-4.37" transform="translate(-262.8 -100.11)" style="fill:#008656"/><path d="M391.94,416.6l-4.16,10.18c-0.47,0-.87,0-1.21,0s-0.67-.06-1-0.12a8.36,8.36,0,0,1-1-.24q-0.51-.15-1.08-0.39a6.27,6.27,0,0,1-1.54-.88,3.53,3.53,0,0,1-1-1.29,3.81,3.81,0,0,1-.33-1.75,6.57,6.57,0,0,1,.54-2.24l2.67-6.54,2.58,1.05L384,420.14a3.33,3.33,0,0,0-.37,1.91,1.52,1.52,0,0,0,1,.93,5.47,5.47,0,0,0,.75.24,5.56,5.56,0,0,0,.76.14l3.19-7.82Z" transform="translate(-262.8 -100.11)" style="fill:#008656"/><path d="M397.7,421.67l-0.37-.11-0.52-.13L396,421.3c-0.33-.05-0.28-0.09.15-0.12l-2.71,8.23-2.65-.87,3.53-10.75,1.14,0.14c0.34,0,.67.11,1,0.17l0.95,0.21c0.31,0.07.58,0.15,0.81,0.22l1.9,0.63-1,3Z" transform="translate(-262.8 -100.11)" style="fill:#008656"/><path d="M404.64,420.56l-3.09,11.24-2.69-.74,3.09-11.24Zm-2-2.28a1.67,1.67,0,0,1-.13-1.38,1.72,1.72,0,0,1,.78-1.08,1.52,1.52,0,0,1,1.22-.16,1.49,1.49,0,0,1,1,.76,1.73,1.73,0,0,1,.11,1.32,1.77,1.77,0,0,1-.76,1.1,1.49,1.49,0,0,1-1.22.16,1.61,1.61,0,0,1-1-.72" transform="translate(-262.8 -100.11)" style="fill:#008656"/><path d="M408,421.4l0.86-4,2.73,0.59-0.86,4,3.52,0.76-0.65,3L410,425l-0.8,3.7a4,4,0,0,0-.11.86,1.1,1.1,0,0,0,.12.53,1,1,0,0,0,.37.34,2.47,2.47,0,0,0,.69.24l2.15,0.46-0.65,3-2.4-.52a7.28,7.28,0,0,1-1.68-.55,3,3,0,0,1-1.1-.9,2.61,2.61,0,0,1-.48-1.32,5.87,5.87,0,0,1,.15-1.79l1-4.66-1.74-.38,0.65-3Z" transform="translate(-262.8 -100.11)" style="fill:#008656"/><path d="M415.59,435.71c0.26,0.13.54,0.26,0.82,0.37a7.2,7.2,0,0,0,.83.3,5.29,5.29,0,0,0,.74.16,4.11,4.11,0,0,0,.95,0,2,2,0,0,0,.75-0.21,1.39,1.39,0,0,0,.51-0.43l0.19-.26,0.15-.34a7.5,7.5,0,0,1-1.77,0,6.88,6.88,0,0,1-1.68-.44,3.14,3.14,0,0,1-1.27-.95,3.59,3.59,0,0,1-.7-1.6,7.42,7.42,0,0,1,0-2.39l0.94-6.82,2.78,0.39-0.83,6a5.67,5.67,0,0,0-.06,1.2,1.94,1.94,0,0,0,.18.76,1,1,0,0,0,.44.43,2.35,2.35,0,0,0,.74.21,5.24,5.24,0,0,0,.78,0,4.38,4.38,0,0,0,.78-0.07l1.13-8.18,2.76,0.38-1.44,10.47a11.28,11.28,0,0,1-.6,2.52,3.8,3.8,0,0,1-1.1,1.6,3.43,3.43,0,0,1-1.71.73,8.69,8.69,0,0,1-2.44,0,6.23,6.23,0,0,1-.65-0.13l-0.71-.21-0.7-.26a7.45,7.45,0,0,1-.74-0.35L414.53,435a8.07,8.07,0,0,0,1.06.67" transform="translate(-262.8 -100.11)" style="fill:#008656"/><rect x="503.62" y="398.47" width="3.28" height="16.55" transform="translate(-400.53 221.19) rotate(-31.26)" style="fill:#008656"/><rect x="563.14" y="323.59" width="3.28" height="16.56" transform="translate(-192.57 661.34) rotate(-71.42)" style="fill:#008656"/><path d="M563.73,293.07l1.17,0,0.12-4.63-2-.05L563,291a0.49,0.49,0,0,1-.29-0.17,0.88,0.88,0,0,1-.16-0.65l0-1.09-1.4,0,0,1.25a3,3,0,0,0,.57,2,2.59,2.59,0,0,0,2.07.79" transform="translate(-262.8 -100.11)" style="fill:#008656"/><rect x="571.37" y="283.9" width="3.29" height="14.17" transform="matrix(0.03, -1, 1, 0.03, 4.41, 756.12)" style="fill:#008656"/><path d="M514.77,395.89a2.14,2.14,0,0,0,2-1.65,1.54,1.54,0,0,0-.37-1.37,1.57,1.57,0,0,0-1.21-.62,2.12,2.12,0,0,0-2.07,1.69,1.58,1.58,0,0,0,.36,1.31,1.54,1.54,0,0,0,1.26.64" transform="translate(-262.8 -100.11)" style="fill:#008656"/><path d="M540.6,388.46l-0.2-.19-3.29-3.39a9.77,9.77,0,0,0-1.83-1.49,3.94,3.94,0,0,0-2-.63,4.59,4.59,0,0,0-2.16.43,7.45,7.45,0,0,0-2,1.44l-3.87,3.76-1.85-6.31-2.55,2.48,1.82,6.62a5.16,5.16,0,0,0,1.43,1,5.89,5.89,0,0,0,1.48.43l6-5.84a2,2,0,0,1,.76-0.47,1.6,1.6,0,0,1,.78-0.08,2,2,0,0,1,.74.26,3.43,3.43,0,0,1,.75.6l1.34,1.41q-5,5.15-10.43,9.8l-4.42-5.42-2.55,2.07,5.94,7.31-1,.84a8,8,0,0,1-1.33.89,2.7,2.7,0,0,1-1.27.33,1.83,1.83,0,0,1-1-.35,5.13,5.13,0,0,1-1-1l-4-5-2.55,2.07,4.24,5.22a9.37,9.37,0,0,0,1.75,1.66,3.85,3.85,0,0,0,2,.76,5.83,5.83,0,0,0,1.28,0,5.44,5.44,0,0,0,1.24-.32,7.11,7.11,0,0,0,1.26-.64,14.09,14.09,0,0,0,1.34-1l3.73-3-1.53-1.88,1.42-1.22,0.21-.17h0a149.78,149.78,0,0,0,11.1-10.75l0.24-.22,0,0h0" transform="translate(-262.8 -100.11)" style="fill:#008656"/><path d="M570.43,340.32l-1.76-.66-10.58-4.16,0.47-1.2-3.06-1.2-1.67,4.25,12.32,4.85q-0.69,1.71-1.43,3.4l-0.21-.14a6.13,6.13,0,0,0-.6-0.34,6.35,6.35,0,0,0-2.45-.66,6.14,6.14,0,0,0-2.39.33A6.34,6.34,0,0,0,557,346a6.17,6.17,0,0,0-1.51,2,5.93,5.93,0,0,0-.62,2.39,6.08,6.08,0,0,0,.36,2.35,6.52,6.52,0,0,0,1.21,2.06,6.22,6.22,0,0,0,2,1.52c0.21,0.11.42,0.2,0.63,0.27l0.26,0.1c-0.43.81-.87,1.62-1.32,2.41a3.14,3.14,0,0,1-1.66,1.4l-0.57-.43c-0.24-.17-0.5-0.34-0.78-0.51l-6.35-3.73L547,358.65l6.65,3.92a2.4,2.4,0,0,1,1.15,1.29,2,2,0,0,1-.23,1.54,2.19,2.19,0,0,1-1.37.95,2.65,2.65,0,0,1-1.93-.59l-4.17-2.85-1.85,2.71,4.26,2.92a2.42,2.42,0,0,1,.78.79,1.83,1.83,0,0,1,.24.84,2.05,2.05,0,0,1-.14.84,3.48,3.48,0,0,1-.27.51h0l0,0.08L549,373l-5.9-4.44-2,2.62,5.89,4.44-0.43.63q-1.85,2.4-3.8,4.73l-10-8.67-2.15,2.48,10,8.68h0l2.48,2.17,0,0h0l0.2-.25q4.87-5.56,9.18-11.59h0l0.18-.22c0-.06.08-0.13,0.12-0.2a5.54,5.54,0,0,0,.78-1.93,4.94,4.94,0,0,0,0-2,2.66,2.66,0,0,0,.95-0.14,4.4,4.4,0,0,0,1.09-.49,4.52,4.52,0,0,0,.91-0.75,7.81,7.81,0,0,0,.74-0.92l0,0h0q1.55-2.65.71-4.4l0.4-.09a3.21,3.21,0,0,0,.87-0.35,4.06,4.06,0,0,0,.9-0.72,7.93,7.93,0,0,0,1-1.41l0,0c0.65-1.16,1.28-2.35,1.9-3.53a6.19,6.19,0,0,0,2-1.14,6,6,0,0,0,1.56-2,6.29,6.29,0,0,0,.65-2.5,5.85,5.85,0,0,0-.36-2.38l0-.09q1.69-3.76,3.18-7.61l0.25-.54h0v0M563.74,352a2.9,2.9,0,0,1-.71.93,2.87,2.87,0,0,1-1,.56,2.73,2.73,0,0,1-1.1.13,3.2,3.2,0,0,1-2.09-1,2.8,2.8,0,0,1-.59-1,3,3,0,0,1-.17-1.1,2.76,2.76,0,0,1,.3-1.14,3.14,3.14,0,0,1,.73-1,2.85,2.85,0,0,1,1-.58,2.73,2.73,0,0,1,1.12-.13,3.24,3.24,0,0,1,1.16.33,3,3,0,0,1,.95.72,2.83,2.83,0,0,1,.69,2.11,3.17,3.17,0,0,1-.32,1.14" transform="translate(-262.8 -100.11)" style="fill:#008656"/><path d="M564.18,313.87a1.58,1.58,0,0,0-1.33.28,2.11,2.11,0,0,0-.55,2.62,1.58,1.58,0,0,0,1.11.79,1.55,1.55,0,0,0,1.39-.3,2.14,2.14,0,0,0,.53-2.56,1.54,1.54,0,0,0-1.15-.83" transform="translate(-262.8 -100.11)" style="fill:#008656"/><path d="M579.8,298.51a6,6,0,0,0-1.8-1.57,5.93,5.93,0,0,0-2.39-.75,6.33,6.33,0,0,0-2.53.22,6.14,6.14,0,0,0-2.12,1.13,6.34,6.34,0,0,0-1.53,1.85,6.17,6.17,0,0,0-.73,2.38,5.94,5.94,0,0,0,.24,2.45,6.12,6.12,0,0,0,1.15,2.09,6.51,6.51,0,0,0,1.85,1.51,6.19,6.19,0,0,0,2.4.74c0.24,0,.46,0,0.68,0h0.23q-0.26,1.85-.58,3.69h0l-6.8-1.42-0.67,3.22,9.22,1.93-0.27,1.3a8,8,0,0,1-.47,1.53,2.67,2.67,0,0,1-.78,1.06,1.85,1.85,0,0,1-1,.37,5.09,5.09,0,0,1-1.43-.13l-6.26-1.31-0.67,3.22,6.59,1.38a9.31,9.31,0,0,0,2.41.19,3.84,3.84,0,0,0,2.07-.69,5.88,5.88,0,0,0,1-.83,5.6,5.6,0,0,0,.76-1,7.13,7.13,0,0,0,.57-1.29,13.87,13.87,0,0,0,.43-1.6l1-4.71-2.4-.5q0.46-2.68.82-5.4l0.07-.3a6.17,6.17,0,0,0,1.55-1.8,6,6,0,0,0,.78-2.42,6.15,6.15,0,0,0-.23-2.43,6.66,6.66,0,0,0-1.08-2.12m-2,4.21a2.91,2.91,0,0,1-1.05,2,2.73,2.73,0,0,1-1,.51,3.21,3.21,0,0,1-2.31-.24,2.8,2.8,0,0,1-.88-0.7,3,3,0,0,1-.54-1,2.78,2.78,0,0,1-.12-1.17,3.15,3.15,0,0,1,.35-1.18,2.83,2.83,0,0,1,.72-0.88,2.74,2.74,0,0,1,1-.51,3.24,3.24,0,0,1,1.2-.09,3,3,0,0,1,1.14.35,2.82,2.82,0,0,1,1.37,1.74,3.15,3.15,0,0,1,.1,1.18" transform="translate(-262.8 -100.11)" style="fill:#008656"/><path d="M454,428.24a2.14,2.14,0,0,0,2.54-.61,1.54,1.54,0,0,0,.25-1.4,1.58,1.58,0,0,0-.82-1.08,2.12,2.12,0,0,0-2.6.63,1.58,1.58,0,0,0-.24,1.34,1.54,1.54,0,0,0,.86,1.13" transform="translate(-262.8 -100.11)" style="fill:#008656"/><path d="M455.58,429.08a2,2,0,0,0-1.19.78,1.58,1.58,0,0,0-.24,1.34,1.55,1.55,0,0,0,.86,1.13,2.14,2.14,0,0,0,2.54-.61,1.54,1.54,0,0,0,.25-1.4,1.57,1.57,0,0,0-.82-1.08,2,2,0,0,0-1.41-.15" transform="translate(-262.8 -100.11)" style="fill:#008656"/><path d="M488.25,411.22a2.08,2.08,0,0,0,1-.95,1.54,1.54,0,0,0,0-1.42,1.57,1.57,0,0,0-1-.91,2.12,2.12,0,0,0-2.43,1.11,1.57,1.57,0,0,0,0,1.36,1.54,1.54,0,0,0,1.06.94,2.08,2.08,0,0,0,1.37-.14" transform="translate(-262.8 -100.11)" style="fill:#008656"/><path d="M503.51,415.71l-0.76-1.47,0,0-4.77-8.8,1.13-.61L497.52,402l-4,2.18,6.33,11.68,0,0q-1.59.85-3.21,1.66l-1-2.28a9.74,9.74,0,0,0-1.21-2,4,4,0,0,0-1.62-1.25,4.6,4.6,0,0,0-2.18-.32,7.47,7.47,0,0,0-2.37.68l-1.06.48,1.36,3,1.31-.6a2.09,2.09,0,0,1,.87-0.2,1.49,1.49,0,0,1,.76.18,2,2,0,0,1,.62.49,3.41,3.41,0,0,1,.51.82l1.13,2.47c-2.08,1-4.17,1.94-6.3,2.82l0,0.09h0l0.05,0.11,1.3,2.79a148.15,148.15,0,0,0,15.55-7.59v0h0Z" transform="translate(-262.8 -100.11)" style="fill:#008656"/><path d="M486.42,425.18L485,420.94a9.67,9.67,0,0,0-1-2.14,4,4,0,0,0-1.49-1.41,4.59,4.59,0,0,0-2.13-.55,7.46,7.46,0,0,0-2.43.43L472.82,419l1.05-6.49-3.38,1.13-1.21,6.75a5.15,5.15,0,0,0,.86,1.53,5.86,5.86,0,0,0,1.15,1l8-2.67a2,2,0,0,1,.89-0.1,1.58,1.58,0,0,1,.73.26,2.05,2.05,0,0,1,.56.55,3.45,3.45,0,0,1,.42.87l0.58,1.83a143.16,143.16,0,0,1-13.85,4.39l0-.07-2-8.14-3.89.94a8.6,8.6,0,0,0-2.07.77,4.76,4.76,0,0,0-1.49,1.23,4.33,4.33,0,0,0-.9,2.12,7.07,7.07,0,0,0,.19,2.59l1.25,5.18-3.5.85a7.29,7.29,0,0,1-1.76.21,8.47,8.47,0,0,1-2.17-.38l-0.61,3.14c0.65,0.18,1.19.31,1.62,0.38a7.69,7.69,0,0,0,1.32.11,10.17,10.17,0,0,0,1.45-.12q0.76-.12,1.79-0.36l5.83-1.41-2.06-8.54a2.54,2.54,0,0,1,0-.95,1.57,1.57,0,0,1,.86-1.27,3.35,3.35,0,0,1,.8-0.29l1-.24,2,8.14h0l0,0.13A146.64,146.64,0,0,0,486,425.88l0.61-.18v0h0Z" transform="translate(-262.8 -100.11)" style="fill:#008656"/><path d="M406.41,350.21a11,11,0,0,0,1.73.57q0.93,0.23,1.88.37a12.11,12.11,0,0,0,1.88.15,10.68,10.68,0,0,0,2-.16,4.79,4.79,0,0,0,1.51-.52,2.76,2.76,0,0,0,1-.88,2.19,2.19,0,0,0,.34-1.24,2,2,0,0,0-.28-1.09,2.58,2.58,0,0,0-.82-0.81,5.58,5.58,0,0,0-1.36-.6q-0.82-.25-1.84-0.52l-2-.51a10,10,0,0,1-5.2-2.79,7,7,0,0,1-1.76-4.82,6.2,6.2,0,0,1,.67-2.87,6.45,6.45,0,0,1,1.9-2.24,8.9,8.9,0,0,1,2.9-1.42,13.06,13.06,0,0,1,3.7-.49,17.73,17.73,0,0,1,2.38.16,17.3,17.3,0,0,1,2.33.48q1.12,0.31,2.15.7a12.33,12.33,0,0,1,2.14,1.08l-2,4.51a12.52,12.52,0,0,0-3.48-1.57,13.34,13.34,0,0,0-3.51-.49,7.5,7.5,0,0,0-1.55.15,4.39,4.39,0,0,0-1.26.45,2.39,2.39,0,0,0-.82.7,1.59,1.59,0,0,0-.28.94,2,2,0,0,0,.81,1.64,7.65,7.65,0,0,0,2.75,1.11l2,0.51a21,21,0,0,1,3,1,9.5,9.5,0,0,1,2.48,1.55,7,7,0,0,1,1.7,2.24,7.41,7.41,0,0,1-.15,6.29,7,7,0,0,1-2.11,2.39,9.69,9.69,0,0,1-3.15,1.45,15,15,0,0,1-3.94.49,20.53,20.53,0,0,1-2.57-.16,21.79,21.79,0,0,1-2.48-.46,20.94,20.94,0,0,1-2.24-.69,12,12,0,0,1-2.15-1.07l2-4.51a12.74,12.74,0,0,0,1.79,1" transform="translate(-262.8 -100.11)" style="fill:#fff"/><polygon points="163.05 230.68 168.13 230.68 168.13 240.44 178.97 240.44 178.97 230.68 184.08 230.68 184.08 255.68 178.97 255.68 178.97 245.28 168.13 245.28 168.13 255.68 163.05 255.68 163.05 230.68" style="fill:#fff"/><path d="M454.14,350.21a11,11,0,0,0,1.73.57q0.93,0.23,1.88.37a12.14,12.14,0,0,0,1.88.15,10.66,10.66,0,0,0,2-.16,4.78,4.78,0,0,0,1.51-.52,2.77,2.77,0,0,0,1-.88,2.2,2.2,0,0,0,.34-1.24,2,2,0,0,0-.28-1.09,2.56,2.56,0,0,0-.82-0.81,5.6,5.6,0,0,0-1.36-.6q-0.82-.25-1.84-0.52l-2-.51a10,10,0,0,1-5.2-2.79,7,7,0,0,1-1.76-4.82,6.19,6.19,0,0,1,.67-2.87,6.47,6.47,0,0,1,1.9-2.24,8.93,8.93,0,0,1,2.9-1.42,13.06,13.06,0,0,1,3.7-.49,17.71,17.71,0,0,1,2.38.16A17.31,17.31,0,0,1,465,331q1.12,0.31,2.15.7a12.29,12.29,0,0,1,2.14,1.08l-2,4.51a12.52,12.52,0,0,0-3.48-1.57,13.34,13.34,0,0,0-3.51-.49,7.52,7.52,0,0,0-1.55.15,4.38,4.38,0,0,0-1.25.45,2.41,2.41,0,0,0-.82.7,1.59,1.59,0,0,0-.28.94,2,2,0,0,0,.81,1.64,7.65,7.65,0,0,0,2.75,1.11l2,0.51a21,21,0,0,1,3,1,9.52,9.52,0,0,1,2.48,1.55,7,7,0,0,1,1.7,2.24,7.41,7.41,0,0,1-.15,6.29,7,7,0,0,1-2.1,2.39,9.71,9.71,0,0,1-3.15,1.45,15,15,0,0,1-3.94.49,20.5,20.5,0,0,1-2.57-.16,21.77,21.77,0,0,1-2.48-.46,21,21,0,0,1-2.24-.69,12.08,12.08,0,0,1-2.15-1.07l2-4.51a12.69,12.69,0,0,0,1.79,1" transform="translate(-262.8 -100.11)" style="fill:#fff"/></svg>