<?xml version="1.0" encoding="utf-8"?>
<!-- Generator: Adobe Illustrator 25.0.0, SVG Export Plug-In . SVG Version: 6.00 Build 0)  -->
<svg version="1.1" id="Layer_1" xmlns="http://www.w3.org/2000/svg" xmlns:xlink="http://www.w3.org/1999/xlink" x="0px" y="0px"
	 viewBox="0 0 196 35" style="enable-background:new 0 0 196 35;" xml:space="preserve">
<style type="text/css">
	.st0{fill:#1E1E1C;}
	.st1{fill:#D05296;}
	.st2{fill:url(#SVGID_1_);}
	.st3{fill:#2A99D5;}
</style>
<g>
	<g>
		<g>
			<g transform="translate(-443 -1036) translate(0 977) translate(443 59)">
				<path class="st0" d="M121.1,13.4c-0.1,0.5-0.3,0.9-0.7,1.2c-0.3,0.4-0.8,0.6-1.2,0.8c-0.6,0.2-1.3,0.3-1.9,0.3
					c-0.2,0-0.4,0-0.6,0c-0.2,0-0.4,0-0.5-0.1c-0.2,0-0.4-0.1-0.5-0.1l-0.6-0.2l-0.2-2.1c0.4,0.1,0.8,0.2,1.2,0.3
					c0.4,0.1,0.7,0.1,1.1,0.1c0.3,0,0.5,0,0.8,0c0.2,0,0.4-0.1,0.6-0.2c0.2-0.1,0.3-0.2,0.4-0.4c0.1-0.2,0.2-0.4,0.2-0.6h-0.2
					c-0.7,0-1.4-0.1-2.1-0.2c-0.6-0.1-1.2-0.4-1.7-0.8c-0.5-0.3-0.9-0.8-1.1-1.3c-0.3-0.6-0.4-1.3-0.4-2c0-0.6,0.1-1.2,0.4-1.8
					c0.3-0.5,0.6-1,1.1-1.4c0.5-0.4,1.1-0.7,1.7-0.8c0.7-0.2,1.4-0.3,2.2-0.3h2.5l0,8C121.3,12.4,121.2,12.9,121.1,13.4z M115.9,9
					c0.1,0.3,0.3,0.5,0.5,0.7c0.2,0.2,0.5,0.3,0.8,0.4c0.3,0.1,0.7,0.1,1,0.1h0.9V6h-0.9c-0.3,0-0.6,0.1-0.9,0.2
					c-0.3,0.1-0.6,0.2-0.8,0.4c-0.2,0.2-0.4,0.4-0.6,0.7c-0.1,0.3-0.2,0.6-0.2,0.9C115.7,8.4,115.7,8.7,115.9,9z M131.5,12.3
					c-0.4,0-0.7-0.1-1.1-0.2c-0.3-0.1-0.6-0.2-0.9-0.4c-0.3-0.2-0.5-0.4-0.8-0.6c-0.4-0.4-0.7-0.9-0.8-1.4c-0.2-0.6-0.2-1.2-0.2-1.8
					V5.1h2.2v2.6c0,0.4,0,0.8,0.1,1.2c0.1,0.3,0.3,0.6,0.5,0.8c0.3,0.2,0.6,0.4,1,0.5c0.4,0.1,0.9,0.1,1.3,0.1h4.4V3.8h2.2v8.6h-6.7
					C132.3,12.4,131.9,12.4,131.5,12.3z M131.1,3c-0.2-0.2-0.4-0.5-0.4-0.8c0-0.3,0.1-0.6,0.4-0.8c0.5-0.4,1.2-0.4,1.7,0
					c0.2,0.2,0.4,0.5,0.4,0.8c0,0.3-0.1,0.6-0.4,0.8C132.3,3.4,131.6,3.4,131.1,3L131.1,3z M134.5,3c-0.2-0.2-0.4-0.5-0.4-0.8
					c0-0.3,0.1-0.6,0.4-0.8c0.2-0.2,0.6-0.3,0.9-0.3c0.3,0,0.6,0.1,0.9,0.3c0.2,0.2,0.4,0.5,0.3,0.8c0,0.3-0.1,0.6-0.4,0.8
					C135.7,3.4,135,3.4,134.5,3L134.5,3z M144.6,0v12.4h-2.2V0H144.6z M151.8,10.3V7.9c0-0.3,0-0.5-0.1-0.8
					c-0.1-0.2-0.2-0.4-0.3-0.6c-0.1-0.2-0.3-0.3-0.5-0.4C150.6,6,150.3,5.9,150,6h-0.9V3.8h0.7c0.6,0,1.3,0.1,1.9,0.3
					c0.5,0.2,1,0.5,1.4,0.9c0.3,0.4,0.6,0.8,0.7,1.3c0.1,0.6,0.2,1.2,0.2,1.7v4.4h-7.6v-2.1L151.8,10.3L151.8,10.3z M164.9,10.3v2.1
					h-1.5c0,0.5-0.1,0.9-0.3,1.4c-0.1,0.4-0.4,0.8-0.7,1.1c-0.3,0.3-0.8,0.5-1.2,0.7c-0.6,0.2-1.2,0.3-1.8,0.2c-0.2,0-0.4,0-0.6,0
					c-0.2,0-0.4,0-0.5-0.1c-0.2,0-0.4-0.1-0.5-0.1l-0.6-0.2l-0.2-2.2c0.4,0.1,0.8,0.2,1.2,0.3c0.4,0.1,0.7,0.1,1.1,0.1
					c0.3,0,0.5,0,0.8,0c0.2,0,0.4-0.1,0.6-0.2c0.2-0.1,0.3-0.2,0.4-0.4c0.1-0.2,0.2-0.4,0.2-0.6H161c-0.7,0-1.4-0.1-2.1-0.2
					c-0.6-0.1-1.2-0.4-1.7-0.8c-0.5-0.3-0.9-0.8-1.1-1.3c-0.3-0.6-0.4-1.3-0.4-2c0-0.6,0.1-1.2,0.4-1.8c0.3-0.5,0.6-1,1.1-1.4
					c0.5-0.4,1.1-0.7,1.7-0.8c0.7-0.2,1.4-0.3,2.2-0.3h2.5l0,6.4L164.9,10.3L164.9,10.3z M158,9c0.1,0.3,0.3,0.5,0.5,0.7
					c0.2,0.2,0.5,0.3,0.8,0.4c0.3,0.1,0.7,0.1,1,0.1h0.9V6h-0.9c-0.3,0-0.6,0.1-0.9,0.2c-0.3,0.1-0.6,0.2-0.8,0.4
					c-0.2,0.2-0.4,0.4-0.6,0.7c-0.1,0.3-0.2,0.6-0.2,0.9C157.8,8.4,157.9,8.7,158,9z"/>
				<path class="st0" d="M166.7,10.3c-0.2-0.3-0.4-0.6-0.5-1c-0.1-0.4-0.2-0.8-0.2-1.2c0-0.6,0.1-1.2,0.4-1.8c0.2-0.5,0.6-1,1.1-1.4
					c0.5-0.4,1.1-0.7,1.7-0.8c0.7-0.2,1.4-0.3,2.1-0.3h2.6v6.5h1.4v2.1h-10.6v-2.1H166.7z M168,2.2c-0.2-0.2-0.4-0.5-0.4-0.8
					c0-0.3,0.1-0.6,0.4-0.8c0.5-0.4,1.2-0.4,1.7,0c0.2,0.2,0.4,0.5,0.4,0.8c0,0.3-0.1,0.6-0.4,0.8C169.2,2.6,168.5,2.6,168,2.2
					L168,2.2z M168.4,9.4c0.2,0.4,0.5,0.7,0.9,0.9h2.3V6h-0.9c-0.3,0-0.6,0-0.9,0.1c-0.3,0.1-0.6,0.2-0.8,0.4
					c-0.2,0.2-0.4,0.4-0.6,0.7c-0.2,0.3-0.2,0.6-0.2,0.9C168.1,8.5,168.2,9,168.4,9.4L168.4,9.4L168.4,9.4z M171.4,2.2
					C171.1,2,171,1.7,171,1.4c0-0.3,0.1-0.6,0.4-0.8c0.5-0.4,1.2-0.4,1.7,0c0.2,0.2,0.4,0.5,0.3,0.8c0,0.3-0.1,0.6-0.4,0.8
					C172.6,2.6,171.9,2.6,171.4,2.2L171.4,2.2z"/>
				<path class="st0" d="M177,10.3c-0.2-0.3-0.4-0.6-0.5-1c-0.1-0.4-0.2-0.8-0.2-1.2c0-0.6,0.1-1.2,0.4-1.8c0.2-0.5,0.6-1,1.1-1.4
					c0.5-0.4,1.1-0.7,1.7-0.8c0.7-0.2,1.4-0.3,2.1-0.3h2.6v6.5h1.5v2.1h-10.6v-2.1H177L177,10.3z M178.7,9.4
					c0.2,0.4,0.5,0.7,0.9,0.9h2.3V6h-0.9c-0.3,0-0.6,0-0.9,0.1c-0.3,0.1-0.6,0.2-0.8,0.4c-0.2,0.2-0.4,0.4-0.6,0.7
					c-0.2,0.3-0.2,0.6-0.2,0.9C178.4,8.5,178.5,9,178.7,9.4L178.7,9.4z M179.9,2.2c-0.3-0.2-0.4-0.5-0.4-0.9c0-0.3,0.1-0.6,0.4-0.8
					c0.5-0.4,1.3-0.4,1.8,0c0.2,0.2,0.4,0.5,0.4,0.8c0,0.3-0.1,0.6-0.4,0.9C181.1,2.6,180.4,2.6,179.9,2.2L179.9,2.2L179.9,2.2z"/>
				<path class="st0" d="M186.7,10.3c0-0.2-0.1-0.3-0.1-0.5c0-0.2,0-0.3,0-0.5c0-0.6,0.1-1.2,0.4-1.8c0.2-0.6,0.6-1.1,1-1.5
					c0.4-0.4,0.9-0.8,1.5-1c0.6-0.2,1.2-0.4,1.8-0.4c1.3,0,2.5,0.5,3.4,1.3c0.4,0.4,0.8,0.9,1,1.5c0.2,0.6,0.4,1.2,0.4,1.8
					c0,0.6-0.1,1.2-0.4,1.8c-0.2,0.5-0.6,1-1,1.4c-0.4,0.4-1,0.7-1.5,1c-0.6,0.2-1.2,0.4-1.8,0.4c-0.6,0-1.3-0.1-1.9-0.4
					c-0.6-0.2-1.1-0.6-1.5-1h-2.7v-2.1L186.7,10.3L186.7,10.3z M192.3,11.5c0.3-0.1,0.6-0.3,0.8-0.5c0.2-0.2,0.4-0.5,0.5-0.8
					c0.1-0.3,0.2-0.6,0.2-1c0-0.3-0.1-0.7-0.2-1c-0.1-0.3-0.3-0.6-0.5-0.8c-0.2-0.2-0.5-0.4-0.8-0.5c-0.3-0.1-0.7-0.2-1-0.2
					c-0.3,0-0.7,0.1-1,0.2c-0.6,0.3-1.1,0.7-1.3,1.3c-0.1,0.3-0.2,0.6-0.2,1c0,0.3,0.1,0.7,0.2,1c0.1,0.3,0.3,0.6,0.5,0.8
					c0.2,0.2,0.5,0.4,0.8,0.5c0.3,0.1,0.6,0.2,1,0.2C191.6,11.7,191.9,11.7,192.3,11.5L192.3,11.5z M117.5,31.4
					c-0.4,0-0.7-0.1-1.1-0.2c-0.3-0.1-0.6-0.2-0.9-0.4c-0.3-0.2-0.5-0.4-0.8-0.6c-0.4-0.4-0.7-0.9-0.8-1.4c-0.2-0.6-0.2-1.2-0.2-1.8
					V24h2.2v2.7c0,0.4,0,0.8,0.2,1.2c0.1,0.3,0.3,0.6,0.5,0.8c0.3,0.2,0.7,0.4,1,0.5c0.4,0.1,0.9,0.1,1.3,0.1h4.5v-6.6h2.2v8.8h-6.9
					C118.3,31.4,117.9,31.4,117.5,31.4L117.5,31.4z M117.1,21.9c-0.2-0.2-0.4-0.5-0.4-0.8c0-0.3,0.1-0.6,0.4-0.8
					c0.5-0.4,1.2-0.4,1.8,0c0.2,0.2,0.4,0.5,0.4,0.8c0,0.3-0.1,0.6-0.4,0.8C118.4,22.3,117.7,22.3,117.1,21.9L117.1,21.9L117.1,21.9
					z M120.6,21.9c-0.2-0.2-0.4-0.5-0.4-0.8s0.1-0.6,0.4-0.8c0.5-0.4,1.3-0.4,1.8,0c0.2,0.2,0.4,0.5,0.3,0.8c0,0.3-0.1,0.6-0.4,0.8
					C121.8,22.3,121.1,22.3,120.6,21.9L120.6,21.9L120.6,21.9z M130.9,18.8v12.6h-2.2V18.8H130.9z M133.2,34.8
					c-0.2,0-0.3-0.1-0.5-0.1l-0.2-2.2c0.2,0.1,0.4,0.1,0.6,0.1c0.2,0,0.3,0,0.5,0c0.5,0,0.8-0.1,0.9-0.4c0.2-0.2,0.3-0.6,0.3-1.2
					v-8.5h2.2v8.2c0,0.6-0.1,1.2-0.2,1.8c-0.1,0.5-0.3,0.9-0.6,1.2c-0.3,0.3-0.6,0.6-1,0.7c-0.5,0.2-1,0.2-1.5,0.2
					C133.7,34.9,133.5,34.9,133.2,34.8L133.2,34.8z M148.4,29.3v2.2h-1.5c0,0.5-0.1,0.9-0.3,1.4c-0.2,0.4-0.4,0.8-0.7,1.1
					c-0.4,0.3-0.8,0.6-1.2,0.7c-0.6,0.2-1.2,0.3-1.8,0.2c-0.2,0-0.4,0-0.6,0c-0.2,0-0.4,0-0.5-0.1s-0.4-0.1-0.6-0.1l-0.7-0.2
					l-0.2-2.2c0.4,0.1,0.8,0.2,1.2,0.3c0.4,0.1,0.7,0.1,1.1,0.1c0.3,0,0.5,0,0.8,0c0.2,0,0.4-0.1,0.6-0.2c0.2-0.1,0.3-0.2,0.4-0.4
					c0.1-0.2,0.2-0.4,0.2-0.7h-0.3c-0.7,0-1.4-0.1-2.1-0.2c-0.6-0.1-1.2-0.4-1.7-0.8c-0.5-0.4-0.9-0.8-1.2-1.4
					c-0.3-0.6-0.4-1.3-0.4-2c0-0.6,0.1-1.3,0.4-1.8c0.3-0.5,0.7-1,1.1-1.4c0.5-0.4,1.1-0.7,1.7-0.9c0.7-0.2,1.5-0.3,2.2-0.3h2.5
					l0,6.6L148.4,29.3L148.4,29.3z M141.3,28c0.1,0.3,0.3,0.5,0.6,0.7c0.2,0.2,0.5,0.3,0.8,0.4c0.3,0.1,0.7,0.1,1,0.1h0.9v-4.4h-0.9
					c-0.3,0-0.7,0.1-1,0.2c-0.3,0.1-0.6,0.3-0.8,0.5c-0.2,0.2-0.4,0.4-0.6,0.7c-0.1,0.3-0.2,0.6-0.2,0.9
					C141.1,27.4,141.2,27.7,141.3,28z"/>
				<path class="st0" d="M151.4,29.3v-6.6h2.2v6.6h2.9v2.2H148v-2.2L151.4,29.3L151.4,29.3z M149.8,21c-0.2-0.2-0.4-0.5-0.4-0.8
					c0-0.3,0.1-0.6,0.4-0.8c0.2-0.2,0.5-0.3,0.9-0.3c0.3,0,0.6,0.1,0.9,0.3c0.2,0.2,0.4,0.5,0.4,0.8c0,0.3-0.1,0.6-0.4,0.8
					c-0.2,0.2-0.5,0.3-0.8,0.3C150.3,21.3,150,21.2,149.8,21L149.8,21z M151.6,18.6c-0.2-0.2-0.3-0.4-0.3-0.7c0-0.3,0.1-0.5,0.3-0.7
					c0.4-0.4,1.1-0.4,1.5,0c0.2,0.2,0.3,0.4,0.3,0.7c0,0.3-0.1,0.5-0.3,0.7C152.6,18.9,152,18.9,151.6,18.6L151.6,18.6z M153.2,21
					c-0.2-0.2-0.4-0.5-0.4-0.8c0-0.3,0.1-0.6,0.3-0.8c0.2-0.2,0.5-0.3,0.9-0.3c0.3,0,0.6,0.1,0.9,0.3c0.2,0.2,0.4,0.5,0.3,0.8
					c0,0.3-0.1,0.6-0.4,0.8c-0.2,0.2-0.5,0.3-0.9,0.3C153.7,21.3,153.4,21.2,153.2,21L153.2,21L153.2,21z"/>
				<path class="st0" d="M158.9,29.3l-2-4.9c0.4-0.3,0.8-0.6,1.2-0.9c0.4-0.3,0.8-0.5,1.2-0.7c0.4-0.2,0.8-0.3,1.2-0.5
					c0.4-0.1,0.9-0.2,1.3-0.2c0.9,0,1.8,0.2,2.6,0.6c0.8,0.4,1.6,1,2.3,1.6l-1.9,4.9h2.9v2.2h-11.6v-2.2L158.9,29.3L158.9,29.3z
					 M160.6,24.6c-0.4,0.2-0.8,0.4-1.2,0.6l1.4,4h1.9l1.5-4c-0.4-0.3-0.8-0.5-1.2-0.6c-0.4-0.1-0.8-0.2-1.2-0.2
					C161.4,24.4,161,24.5,160.6,24.6L160.6,24.6z"/>
				<path class="st0" d="M169,29.3c0-0.2-0.1-0.3-0.1-0.5c0-0.2,0-0.3,0-0.5c0-0.6,0.1-1.3,0.4-1.9c0.5-1.1,1.4-2,2.5-2.5
					c0.6-0.3,1.2-0.4,1.9-0.4c1.3,0,2.5,0.5,3.4,1.4c0.4,0.4,0.8,0.9,1,1.5c0.3,0.6,0.4,1.2,0.4,1.9c0,0.6-0.1,1.3-0.4,1.8
					c-0.3,0.6-0.6,1.1-1.1,1.5c-0.4,0.4-1,0.8-1.5,1c-0.6,0.2-1.2,0.4-1.9,0.4c-0.7,0-1.3-0.1-1.9-0.4c-0.6-0.3-1.1-0.6-1.6-1.1
					h-2.7v-2.2L169,29.3L169,29.3z M174.7,30.6c0.3-0.1,0.6-0.3,0.8-0.5c0.2-0.2,0.4-0.5,0.6-0.8c0.1-0.3,0.2-0.7,0.2-1
					c0-0.3-0.1-0.7-0.2-1c-0.1-0.3-0.3-0.6-0.5-0.8c-0.2-0.2-0.5-0.4-0.8-0.5c-0.3-0.1-0.7-0.2-1.1-0.2c-0.7,0-1.3,0.3-1.8,0.7
					c-0.2,0.2-0.4,0.5-0.5,0.8c-0.1,0.3-0.2,0.7-0.2,1c0,0.3,0.1,0.7,0.2,1c0.1,0.3,0.3,0.6,0.5,0.8c0.2,0.2,0.5,0.4,0.8,0.5
					c0.3,0.1,0.7,0.2,1,0.2C174,30.7,174.4,30.7,174.7,30.6L174.7,30.6L174.7,30.6z M8.8,11.7V14H0V0.3h2.5v11.5H8.8z M13.2,13.8
					c-0.6-0.2-1.2-0.6-1.6-1.1c-0.5-0.4-0.8-1-1.1-1.6c-0.3-0.6-0.4-1.3-0.4-2c0-0.7,0.1-1.4,0.4-2C11,6,12,5,13.2,4.5
					C14.6,4,16,4,17.4,4.5C18.6,5,19.6,6,20.1,7.2c0.3,0.6,0.4,1.3,0.4,2c0,0.7-0.1,1.4-0.4,2c-0.3,0.6-0.6,1.1-1.1,1.6
					c-0.5,0.5-1,0.8-1.6,1.1C16,14.3,14.6,14.3,13.2,13.8L13.2,13.8L13.2,13.8z M16.4,11.7c0.3-0.1,0.6-0.3,0.9-0.6
					c0.2-0.2,0.4-0.5,0.5-0.9c0.3-0.7,0.3-1.4,0-2.1c-0.1-0.3-0.3-0.6-0.5-0.9C17,7,16.8,6.8,16.4,6.7c-0.7-0.3-1.5-0.3-2.3,0
					c-0.3,0.1-0.6,0.3-0.9,0.6c-0.2,0.2-0.4,0.5-0.5,0.9c-0.3,0.7-0.3,1.4,0,2.1c0.1,0.3,0.3,0.6,0.5,0.9c0.2,0.2,0.5,0.4,0.8,0.6
					C14.9,11.9,15.7,11.9,16.4,11.7z M27.7,11.7c0.4-0.1,0.5-0.3,0.5-0.6c0-0.2-0.1-0.5-0.3-0.6c-0.4-0.2-0.8-0.3-1.3-0.4L25.9,10
					c-1.1-0.2-1.9-0.5-2.6-1c-0.6-0.5-1-1.2-0.9-2c0-0.8,0.4-1.7,1.1-2.2c0.7-0.5,1.7-0.8,3-0.8c0.7,0,1.5,0.1,2.2,0.2
					c0.7,0.1,1.3,0.3,1.9,0.7l-0.9,2.2c-0.2-0.1-0.5-0.2-0.7-0.3c-0.3-0.1-0.6-0.2-0.9-0.2c-0.3-0.1-0.6-0.1-0.9-0.2
					c-0.3,0-0.6-0.1-0.9-0.1c-1,0-1.5,0.2-1.5,0.6c0,0.2,0.1,0.4,0.3,0.5C25.5,7.8,26,7.9,26.4,8l0.8,0.1c1.3,0.2,2.2,0.6,2.8,1.1
					c0.6,0.5,0.9,1.3,0.8,2c0,0.4-0.1,0.8-0.3,1.2c-0.2,0.4-0.5,0.7-0.8,0.9c-0.4,0.3-0.9,0.5-1.4,0.6c-0.6,0.2-1.3,0.2-1.9,0.2
					c-0.4,0-0.8,0-1.2-0.1c-0.4,0-0.8-0.1-1.2-0.2c-0.4-0.1-0.7-0.2-1.1-0.3c-0.3-0.1-0.6-0.2-0.9-0.4l0.9-2.3
					c0.5,0.3,1,0.5,1.6,0.7c0.6,0.2,1.3,0.3,1.9,0.3C26.9,11.9,27.3,11.8,27.7,11.7z M34.1,4.5V1h2.4v3.5h3.7v2.2h-3.7v3.5
					c0,0.3,0,0.5,0.1,0.8c0,0.2,0.1,0.4,0.3,0.5c0.2,0.1,0.3,0.2,0.5,0.3c0.3,0.1,0.5,0.1,0.8,0.1h2V14H38c-0.6,0-1.2,0-1.7-0.2
					c-0.4-0.1-0.8-0.3-1.2-0.5c-0.3-0.2-0.6-0.6-0.7-0.9c-0.2-0.5-0.2-0.9-0.2-1.4V6.7h-1.8V4.5H34.1z M50.4,13.9
					c-0.6-0.2-1.1-0.4-1.6-0.8c-0.4-0.4-0.8-0.8-1-1.3c-0.3-0.5-0.4-1.1-0.4-1.7c0-0.9,0.3-1.7,0.8-2.4c0.6-0.7,1.5-1.2,2.7-1.7
					c-0.4-0.4-0.7-0.9-1-1.5c-0.3-0.5-0.4-1-0.4-1.5c0-0.4,0.1-0.8,0.3-1.2c0.2-0.4,0.5-0.7,0.8-0.9c0.4-0.3,0.8-0.5,1.3-0.6
					C52.4,0.1,53,0,53.6,0c0.6,0,1.2,0.1,1.8,0.2c0.5,0.1,0.9,0.4,1.3,0.7c0.3,0.3,0.6,0.6,0.8,1c0.2,0.4,0.3,0.9,0.3,1.3
					c0,0.3-0.1,0.6-0.2,0.9c-0.1,0.3-0.3,0.7-0.5,1c-0.3,0.3-0.6,0.6-0.9,0.9c-0.4,0.3-0.9,0.6-1.3,0.7l2.3,2.5
					c0.3-0.4,0.5-0.9,0.7-1.4c0.2-0.5,0.3-1,0.4-1.5h2.5C60.6,7.2,60.3,8,60,8.8c-0.3,0.8-0.8,1.5-1.3,2.2l2.8,3h-3l-1.4-1.4
					c-0.6,0.5-1.3,0.9-2.1,1.2c-0.8,0.3-1.6,0.4-2.5,0.4C51.8,14.2,51.1,14.1,50.4,13.9L50.4,13.9z M54.2,11.7
					c0.5-0.2,1-0.4,1.4-0.7l-3.3-3.5c-0.9,0.3-1.6,0.6-1.9,1c-0.6,0.6-0.7,1.5-0.3,2.3c0.1,0.3,0.3,0.5,0.6,0.7
					c0.3,0.2,0.6,0.3,0.9,0.4c0.3,0.1,0.7,0.1,1.1,0.1C53.1,12,53.7,11.9,54.2,11.7L54.2,11.7z M52.4,4.2c0.3,0.3,0.6,0.7,1,1.1
					c0.7-0.2,1.2-0.5,1.5-0.9c0.3-0.3,0.4-0.7,0.5-1.1c0-0.4-0.2-0.8-0.5-1C54.5,2.1,54.1,2,53.6,2c-0.4,0-0.8,0.1-1.2,0.3
					c-0.3,0.2-0.5,0.5-0.5,0.8C52,3.5,52.1,3.9,52.4,4.2z M5.5,20.8h8.9v2.3H8v3.3h5.8v2.3H8v5.9H5.5V20.8z M19,34.5
					c-0.6-0.2-1.2-0.6-1.7-1.1c-0.5-0.5-0.9-1-1.1-1.6c-0.3-0.6-0.4-1.3-0.4-2c0-0.7,0.1-1.4,0.4-2c0.3-0.6,0.6-1.2,1.1-1.6
					c0.5-0.5,1-0.8,1.7-1.1c1.3-0.5,2.8-0.5,4.1,0c1.2,0.5,2.2,1.5,2.8,2.7c0.3,0.6,0.4,1.3,0.4,2c0,0.7-0.1,1.4-0.4,2
					c-0.3,0.6-0.6,1.1-1.1,1.6c-0.5,0.5-1,0.8-1.7,1.1C21.8,35,20.3,35,19,34.5L19,34.5z M22.2,32.3c0.6-0.3,1.2-0.8,1.4-1.5
					c0.3-0.7,0.3-1.4,0-2.1c-0.1-0.3-0.3-0.6-0.5-0.9c-0.2-0.2-0.5-0.5-0.9-0.6c-0.7-0.3-1.5-0.3-2.3,0c-0.3,0.1-0.6,0.3-0.8,0.6
					c-0.2,0.2-0.4,0.5-0.5,0.9c-0.3,0.7-0.3,1.4,0,2.1c0.2,0.7,0.7,1.2,1.4,1.4C20.7,32.6,21.5,32.6,22.2,32.3L22.2,32.3L22.2,32.3z
					 M36.9,25.1v9.1c-0.3,0.1-0.7,0.2-1,0.3s-0.6,0.2-1,0.2c-0.3,0.1-0.7,0.1-1,0.1c-0.4,0-0.7,0-1.2,0c-0.6,0-1.2-0.1-1.7-0.2
					c-0.5-0.1-1-0.3-1.4-0.7c-0.4-0.3-0.7-0.7-0.9-1.2c-0.2-0.6-0.4-1.2-0.3-1.9v-5.9h2.4v5.2c0,0.9,0.2,1.5,0.5,1.8
					c0.3,0.3,0.8,0.5,1.5,0.5c0.3,0,0.6,0,0.8-0.1c0.3,0,0.7-0.1,1-0.2v-7.3L36.9,25.1L36.9,25.1z M41.2,25c0.4-0.1,0.8-0.1,1.2-0.2
					c0.4,0,0.7-0.1,1.1-0.1c0.3,0,0.6,0,0.9,0c0.6,0,1.2,0.1,1.7,0.2c0.5,0.1,1,0.3,1.4,0.6c0.4,0.3,0.7,0.7,1,1.2
					c0.3,0.6,0.4,1.3,0.4,1.9v6h-2.4v-5.3c0-0.9-0.2-1.5-0.5-1.8c-0.4-0.3-0.9-0.5-1.6-0.5c-0.3,0-0.6,0-0.9,0c-0.3,0-0.6,0.1-1,0.1
					v7.4H40v-9.5C40.4,25.2,40.8,25.1,41.2,25z M60.5,20.8v13.6c-1.3,0.3-2.6,0.5-3.9,0.5c-0.8,0-1.6-0.1-2.4-0.4
					c-0.7-0.2-1.3-0.6-1.8-1.1c-0.5-0.5-0.9-1-1.1-1.6c-0.5-1.3-0.5-2.7,0-4c0.3-0.6,0.6-1.2,1.1-1.6c0.5-0.5,1.1-0.8,1.7-1.1
					c0.7-0.3,1.5-0.4,2.2-0.4c0.2,0,0.5,0,0.7,0c0.3,0,0.6,0.1,0.9,0.1v-4H60.5L60.5,20.8z M54.4,31.9c0.6,0.4,1.3,0.7,2.3,0.7
					c0.5,0,1-0.1,1.5-0.2v-5.1c-0.3-0.1-0.5-0.1-0.8-0.2c-0.2,0-0.5,0-0.7,0c-1,0-1.7,0.2-2.3,0.7c-0.6,0.5-0.8,1.1-0.8,2.1
					C53.5,30.8,53.8,31.5,54.4,31.9z"/>
				<path class="st1" d="M83,0.1h17.7c1.7,0,3.2,1.4,3.2,3.2v0c0,1.7-1.4,3.2-3.2,3.2H83c-1.7,0-3.2-1.4-3.2-3.2v0
					C79.8,1.5,81.3,0.1,83,0.1z"/>
				
					<linearGradient id="SVGID_1_" gradientUnits="userSpaceOnUse" x1="79.5934" y1="35.1118" x2="80.5934" y2="35.1118" gradientTransform="matrix(34.032 0 0 -15.795 -2638.8481 572.0983)">
					<stop  offset="0" style="stop-color:#D05295"/>
					<stop  offset="1" style="stop-color:#2E98D5"/>
				</linearGradient>
				<path class="st2" d="M103.9,22.2c0,1.7-1.4,3.2-3.2,3.2H77.2c-1.8,0-3.2-1.4-3.2-3.2c0-1.7,1.4-3.2,3.2-3.2h5.9
					c0.9,0,1.6-0.7,1.6-1.6s-0.7-1.6-1.6-1.6H73.1c-1.8,0-3.2-1.4-3.2-3.2s1.4-3.2,3.2-3.2h23.5c1.8,0,3.2,1.4,3.2,3.2
					s-1.4,3.2-3.2,3.2h-6.1c-0.9,0-1.6,0.7-1.6,1.6c0,0.9,0.7,1.6,1.6,1.6h10.3c0.8,0,1.7,0.3,2.3,0.9
					C103.6,20.6,103.9,21.4,103.9,22.2L103.9,22.2z"/>
				<path class="st3" d="M73.1,28.6h15.6c1.7,0,3.2,1.4,3.2,3.2l0,0c0,1.7-1.4,3.2-3.2,3.2H73.1c-1.7,0-3.2-1.4-3.2-3.2l0,0
					C69.9,30,71.4,28.6,73.1,28.6z"/>
				<path class="st1" d="M71.5,0.1h6.4v6.3h-6.4V0.1z"/>
				<ellipse class="st3" cx="97.6" cy="31.8" rx="3.2" ry="3.2"/>
			</g>
		</g>
	</g>
</g>
</svg>
