<svg id="Layer_1" data-name="Layer 1" xmlns="http://www.w3.org/2000/svg" viewBox="0 0 100.34 41.16"><title>government-of-dubai</title><path d="M4.56,35.83a2,2,0,0,0-1-.23,2,2,0,0,0-1.47.67,2.51,2.51,0,0,0-.49.83,3.38,3.38,0,0,0-.19,1.18,3.14,3.14,0,0,0,.14,1,2.33,2.33,0,0,0,.41.75,1.89,1.89,0,0,0,.65.5,2.06,2.06,0,0,0,.88.18H3.73l0.27,0,0.24,0,0.16-.06a2.23,2.23,0,0,0,0-.26V39.9c0-.46,0-0.8,0-1s0-.37,0-0.45l0.23,0H5.47l0.24,0a1.07,1.07,0,0,0,0,.22c0,0.11,0,.22,0,0.35s0,0.28,0,.43,0,0.3,0,.43v0.28c0,0.15,0,.28,0,0.4a1.69,1.69,0,0,0,0,.26,9.6,9.6,0,0,1-1.14.25,7.1,7.1,0,0,1-1.14.1A4.54,4.54,0,0,1,2,41,3.15,3.15,0,0,1,1,40.4a2.55,2.55,0,0,1-.7-0.89A2.71,2.71,0,0,1,0,38.32a3.48,3.48,0,0,1,.27-1.42,2.78,2.78,0,0,1,.75-1,3.17,3.17,0,0,1,1.12-.61,4.82,4.82,0,0,1,1.4-.2,4.17,4.17,0,0,1,1.12.13,4.38,4.38,0,0,1,.94.38L5.47,36c0,0.14-.08.29-0.11,0.43H5.24a2.17,2.17,0,0,0-.68-0.62" transform="translate(0 0)" style="fill:#ed1d24"/><path d="M6.78,36.94a3,3,0,0,1,1.7-1.63,3.62,3.62,0,0,1,1.35-.24,4.07,4.07,0,0,1,1.27.19,2.91,2.91,0,0,1,1,.56,2.64,2.64,0,0,1,.69,1,3.3,3.3,0,0,1,.25,1.34,2.95,2.95,0,0,1-.92,2.17,3,3,0,0,1-1,.65,3.6,3.6,0,0,1-1.31.23A4.62,4.62,0,0,1,8.53,41a2.68,2.68,0,0,1-1-.54,2.59,2.59,0,0,1-.7-0.95,3.41,3.41,0,0,1-.26-1.38,3,3,0,0,1,.24-1.19m4.75,0a2.41,2.41,0,0,0-.38-0.75,1.71,1.71,0,0,0-.59-0.47,1.78,1.78,0,0,0-.76-0.16,1.53,1.53,0,0,0-.78.2,1.81,1.81,0,0,0-.59.57,2.68,2.68,0,0,0-.36.84,4.19,4.19,0,0,0-.12,1,4,4,0,0,0,.14,1.15,2.06,2.06,0,0,0,.4.76,1.47,1.47,0,0,0,.57.41,1.86,1.86,0,0,0,.68.13,1.72,1.72,0,0,0,.73-0.16A1.67,1.67,0,0,0,11.09,40a2.65,2.65,0,0,0,.42-0.85,4.05,4.05,0,0,0,.16-1.22,3.36,3.36,0,0,0-.13-1" transform="translate(0 0)" style="fill:#ed1d24"/><path d="M17.14,37.28c0.28-.74.53-1.43,0.75-2.11a2,2,0,0,0,.38,0,2,2,0,0,0,.38,0l-0.51,1.22-0.62,1.5c-0.22.53-.43,1.07-0.64,1.62S16.47,40.57,16.3,41l-0.37,0-0.38,0-0.31-.83-0.4-1L14.4,38.06,14,37l-0.4-1-0.32-.79,0.39,0h0.76l0.38,0c0.1,0.32.21,0.65,0.33,1l0.38,1.08c0.13,0.37.26,0.74,0.4,1.11l0.41,1.1q0.44-1.09.86-2.18" transform="translate(0 0)" style="fill:#ed1d24"/><path d="M19.41,36.28c0-.37,0-0.74,0-1.11l0.76,0,0.76,0H22l0.66,0a1.65,1.65,0,0,0,0,.36,1.88,1.88,0,0,0,0,.21c0,0.05,0,.11,0,0.17l-0.54,0-0.57,0-0.5,0H20.74c0,0.31,0,.63,0,0.94s0,0.61,0,.93l1,0,0.93,0c0,0.1,0,.17,0,0.22s0,0.11,0,.16a0.7,0.7,0,0,0,0,.14c0,0.05,0,.12,0,0.21-0.65,0-1.3-.08-1.94-0.08,0,0.18,0,.36,0,0.54s0,0.36,0,.55c0,0.37,0,.73,0,1.07,0.33,0,.65,0,1,0s0.66,0,1-.09c0,0.06,0,.12,0,0.17a2,2,0,0,0,0,.21,1.86,1.86,0,0,0,0,.21,0.76,0.76,0,0,0,0,.13H19.36c0-.36,0-0.71,0-1.08s0-.79,0-1.26V37.54c0-.47,0-0.89,0-1.26" transform="translate(0 0)" style="fill:#ed1d24"/><path d="M25,38.35V38.7c0,0.47,0,.89,0,1.26s0,0.73.05,1.09L24.8,41H24l-0.32,0c0-.35,0-0.71.05-1.09s0-.79,0-1.26V37.54c0-.47,0-0.89,0-1.26s0-.74-0.05-1.11l0.32,0h0.39l0.53,0,0.73,0,0.56,0,0.4,0.05a1.27,1.27,0,0,1,.29.09,1,1,0,0,1,.23.13,1.35,1.35,0,0,1,.4.46,1.38,1.38,0,0,1,.15.66,1.51,1.51,0,0,1-.34,1,1.87,1.87,0,0,1-1,.56c0.27,0.49.56,1,.88,1.44L28.2,41l-0.39,0H27l-0.39,0-1.52-2.69H25Zm1.27-2.17a0.65,0.65,0,0,0-.23-0.33,0.82,0.82,0,0,0-.41-0.15,4.19,4.19,0,0,0-.6,0c0,0.78,0,1.55,0,2.32h0.19a1.15,1.15,0,0,0,.86-0.3,1.24,1.24,0,0,0,.3-0.92,1.9,1.9,0,0,0-.08-0.6" transform="translate(0 0)" style="fill:#ed1d24"/><path d="M29.07,35.88c0-.27,0-0.51,0-0.71a1.7,1.7,0,0,0,.77,0l1.84,2c0.6,0.67,1.23,1.35,1.86,2V37.67c0-.28,0-0.55,0-0.82s0-.52,0-0.75,0-.43,0-0.59a2.83,2.83,0,0,0,0-.33,2.43,2.43,0,0,0,.39,0,2.4,2.4,0,0,0,.38,0q0,0.78-.07,1.41c0,0.42,0,.81,0,1.18s0,0.73,0,1.1,0,0.75,0,1.15v1l-0.35,0-0.33,0Q31.65,39,29.67,36.92c0,0.16,0,.33,0,0.49s0,0.34,0,.51v1c0,0.34,0,.63,0,0.87s0,0.44,0,.61,0,0.3,0,.4,0,0.19,0,.25l-0.2,0H29.3l-0.39,0s0-.21,0-0.49,0-.61.05-1,0-.84.05-1.31,0-.92,0-1.35,0-.73,0-1" transform="translate(0 0)" style="fill:#ed1d24"/><path d="M36.13,39.13c0,0.64-.09,1.28-0.14,1.92l-0.21,0h-0.4l-0.2,0q0.28-1.47.49-2.92c0.14-1,.27-2,0.4-3l0.17,0h0.34l0.18,0c0.16,0.34.32,0.69,0.49,1l0.51,1.05c0.17,0.36.33,0.7,0.5,1l0.48,1c0.34-.64.68-1.31,1-2s0.66-1.39,1-2.08a2,2,0,0,0,.37,0,2,2,0,0,0,.36,0l0.18,1.58c0.07,0.56.13,1.12,0.19,1.65s0.13,1,.19,1.51,0.12,0.85.17,1.13l-0.35,0H41.15l-0.36,0c0-.59-0.08-1.22-0.14-1.91s-0.13-1.36-.2-2h0l-1,2c-0.31.65-.62,1.3-0.93,2l-0.08,0H38.3l-0.08,0c-0.31-.64-0.61-1.28-0.92-1.92l-0.94-1.94h0c-0.09.65-.16,1.3-0.21,1.94" transform="translate(0 0)" style="fill:#ed1d24"/><path d="M43.15,36.28c0-.37,0-0.74,0-1.11l0.76,0,0.76,0h1.12l0.66,0a1.6,1.6,0,0,0,0,.36,1.2,1.2,0,0,0,0,.21,1.49,1.49,0,0,0,0,.17l-0.54,0-0.57,0-0.5,0H44.48c0,0.31,0,.63,0,0.94s0,0.61,0,.93l1,0,0.94,0,0,0.22c0,0.05,0,.11,0,0.16a0.58,0.58,0,0,0,0,.14c0,0.05,0,.12,0,0.21-0.65,0-1.3-.08-1.94-0.08,0,0.18,0,.36,0,0.54s0,0.36,0,.55c0,0.37,0,.73,0,1.07,0.33,0,.65,0,1,0s0.65,0,1-.09a1.46,1.46,0,0,0,0,.17,1.27,1.27,0,0,0,0,.21,1.19,1.19,0,0,0,0,.21,0.56,0.56,0,0,0,0,.13H43.11c0-.36,0-0.71,0-1.08s0-.79,0-1.26V37.54c0-.47,0-0.89,0-1.26" transform="translate(0 0)" style="fill:#ed1d24"/><path d="M47.58,35.88c0-.27,0-0.51,0-0.71a1.7,1.7,0,0,0,.77,0l1.84,2c0.6,0.67,1.23,1.35,1.87,2V37.67c0-.28,0-0.55,0-0.82s0-.52,0-0.75,0-.43,0-0.59a3,3,0,0,0,0-.33,2.41,2.41,0,0,0,.38,0,2.36,2.36,0,0,0,.39,0c0,0.52-.05,1-0.07,1.41s0,0.81,0,1.18,0,0.73,0,1.1,0,0.75,0,1.15v1l-0.35,0-0.34,0Q50.16,39,48.19,36.92c0,0.16,0,.33,0,0.49s0,0.34,0,.51v1c0,0.34,0,.63,0,0.87s0,0.44,0,.61,0,0.3,0,.4,0,0.19,0,.25L48,41h-0.2l-0.39,0s0-.21,0-0.49,0-.61.06-1,0-.84.05-1.31,0-.92,0-1.35,0-.73,0-1" transform="translate(0 0)" style="fill:#ed1d24"/><path d="M55.18,36.11a2.76,2.76,0,0,0,0-.3H54.84l-0.4,0-0.43,0-0.41,0a1.67,1.67,0,0,0,0-.19,1.43,1.43,0,0,0,0-.18,1.49,1.49,0,0,0,0-.19,1.62,1.62,0,0,0,0-.19l0.53,0,0.48,0H57l0.46,0,0.49,0c0,0.06,0,.13,0,0.19a1.33,1.33,0,0,0,0,.19,1.27,1.27,0,0,0,0,.18c0,0.06,0,.13,0,0.19l-0.38,0-0.42,0-0.4,0H56.46a1,1,0,0,0,0,.12s0,0.11,0,.17v2.6c0,0.47,0,.89,0,1.26s0,0.73,0,1.08L56.2,41H55.43l-0.32,0c0-.36,0-0.71,0-1.08s0-.79,0-1.26v-2.6Z" transform="translate(0 0)" style="fill:#ed1d24"/><path d="M61.07,36.94a3,3,0,0,1,1.7-1.63,3.63,3.63,0,0,1,1.35-.24,4.09,4.09,0,0,1,1.27.19,2.89,2.89,0,0,1,1,.56,2.72,2.72,0,0,1,.69,1,3.37,3.37,0,0,1,.25,1.34,3,3,0,0,1-.92,2.17,3,3,0,0,1-1,.65,3.6,3.6,0,0,1-1.32.23A4.61,4.61,0,0,1,62.83,41a2.66,2.66,0,0,1-1-.54,2.61,2.61,0,0,1-.7-0.95,3.38,3.38,0,0,1-.26-1.38,3,3,0,0,1,.23-1.19m4.75,0a2.28,2.28,0,0,0-.38-0.75,1.73,1.73,0,0,0-.59-0.47,1.76,1.76,0,0,0-.76-0.16,1.53,1.53,0,0,0-.78.2,1.9,1.9,0,0,0-.58.57,2.82,2.82,0,0,0-.36.84,4,4,0,0,0-.12,1,3.86,3.86,0,0,0,.15,1.15,2.09,2.09,0,0,0,.39.76,1.47,1.47,0,0,0,.57.41,1.85,1.85,0,0,0,.68.13,1.73,1.73,0,0,0,.73-0.16A1.69,1.69,0,0,0,65.38,40a2.58,2.58,0,0,0,.42-0.85A4.12,4.12,0,0,0,66,37.93a3.36,3.36,0,0,0-.14-1" transform="translate(0 0)" style="fill:#ed1d24"/><path d="M68.32,36.28c0-.37,0-0.74-0.05-1.11l0.76,0,0.76,0h1.12l0.66,0a1.69,1.69,0,0,0,0,.36c0,0.09,0,.16,0,0.21s0,0.11,0,.17l-0.54,0-0.57,0-0.5,0H69.65c0,0.31,0,.63,0,0.94s0,0.61,0,.93l1,0,0.94,0c0,0.1,0,.17,0,0.22s0,0.11,0,.16a0.64,0.64,0,0,0,0,.14l0,0.21c-0.65,0-1.3-.08-1.94-0.08V38.7c0,0.47,0,.89,0,1.26s0,0.73,0,1.08l-0.32,0H68.59l-0.32,0c0-.36,0-0.71.05-1.08s0-.79,0-1.26V37.54c0-.47,0-0.89,0-1.26" transform="translate(0 0)" style="fill:#ed1d24"/><path d="M75.05,36.28c0-.37,0-0.74-0.05-1.11l0.31,0H75.7l0.63,0,0.91,0a6.17,6.17,0,0,1,1.34.13,2.71,2.71,0,0,1,1,.45,2.09,2.09,0,0,1,.68.85,3.75,3.75,0,0,1,0,2.63,2.91,2.91,0,0,1-.64,1,2.74,2.74,0,0,1-.94.62,3,3,0,0,1-1.14.22H75.31L75,41c0-.36,0-0.71.05-1.09s0-.79,0-1.26V37.54c0-.47,0-0.89,0-1.26m1.28,3v0.51c0,0.16,0,.32,0,0.45s0,0.22,0,.26l0.31,0h0.45a1.91,1.91,0,0,0,1.53-.66A3.64,3.64,0,0,0,79,37a2.21,2.21,0,0,0-.4-0.71A1.75,1.75,0,0,0,78,35.82a2,2,0,0,0-.8-0.16h-0.5l-0.39,0s0,0.13,0,.26,0,0.29,0,.46v2.9Z" transform="translate(0 0)" style="fill:#ed1d24"/><path d="M83.3,41a2.29,2.29,0,0,1-.83-0.39A1.84,1.84,0,0,1,81.93,40a2.39,2.39,0,0,1-.2-1c0-.23,0-0.43,0-0.61s0-.34,0-0.49,0-.3,0-0.45,0-.29,0-0.44c0-.46,0-0.84,0-1.12s0-.5,0-0.64l0.35,0h0.7l0.35,0c-0.05.55-.09,1.07-0.1,1.55s0,1,0,1.45a5.83,5.83,0,0,0,.11,1.25,1.79,1.79,0,0,0,.33.74,1,1,0,0,0,.54.35,2.92,2.92,0,0,0,.73.09,1.16,1.16,0,0,0,.8-0.26,1.6,1.6,0,0,0,.44-0.68,3.58,3.58,0,0,0,.18-1c0-.37,0-0.76,0-1.15s0-.79,0-1.18,0-.78-0.05-1.18l0.23,0h0.42l0.21,0c0,0.13,0,.29,0,0.51s0,0.45,0,.73,0,0.58,0,.91,0,0.69,0,1.06a2.93,2.93,0,0,1-.64,2.13,2.52,2.52,0,0,1-1.88.64,4.36,4.36,0,0,1-1-.11" transform="translate(0 0)" style="fill:#ed1d24"/><path d="M88.35,36.28c0-.37,0-0.74-0.06-1.11l0.32,0H89l0.77,0,0.77,0a2.85,2.85,0,0,1,.7.08,1.63,1.63,0,0,1,.55.23,1.09,1.09,0,0,1,.35.41,1.34,1.34,0,0,1,.13.61,1.18,1.18,0,0,1-.15.6,1.4,1.4,0,0,1-.36.42,1.78,1.78,0,0,1-.45.26,2.4,2.4,0,0,1-.44.13v0a2.06,2.06,0,0,1,.46.09,2,2,0,0,1,.5.26,1.51,1.51,0,0,1,.41.44,1.23,1.23,0,0,1,.17.65,1.7,1.7,0,0,1-.17.79,1.53,1.53,0,0,1-.44.53,1.65,1.65,0,0,1-.64.29,3.44,3.44,0,0,1-.74.08H88.69L88.3,41c0-.36,0-0.71.06-1.09s0-.79,0-1.26V37.54c0-.47,0-0.89,0-1.26m2.6,0A0.76,0.76,0,0,0,90.79,36a0.77,0.77,0,0,0-.28-0.21,1,1,0,0,0-.43-0.08H89.82l-0.16,0c0,0.21,0,.42,0,0.64s0,0.4,0,.55,0,0.3,0,.44,0,0.28,0,.43H90a1,1,0,0,0,.67-0.27,1.06,1.06,0,0,0,.22-0.34A1.28,1.28,0,0,0,91,36.66a1.52,1.52,0,0,0,0-.39m-0.16,2.25A1,1,0,0,0,90,38.24H89.64c0,0.12,0,.24,0,0.37s0,0.28,0,.46,0,0.28,0,.42,0,0.28,0,.42,0,0.26,0,.37,0,0.21,0,.29h0.47a0.87,0.87,0,0,0,.36-0.08,0.83,0.83,0,0,0,.3-0.23A1.11,1.11,0,0,0,91,39.92a1.53,1.53,0,0,0,.08-0.5,1.29,1.29,0,0,0-.27-0.89" transform="translate(0 0)" style="fill:#ed1d24"/><path d="M98.09,41L97.7,41H97l-0.36,0-0.28-.86c-0.1-.29-0.2-0.58-0.31-0.87H94c-0.11.29-.22,0.58-0.32,0.87s-0.18.58-.26,0.86l-0.21,0h-0.4l-0.23,0c0.07-.15.16-0.36,0.28-0.62s0.24-.56.38-0.89l0.44-1.06,0.47-1.15c0.16-.39.31-0.77,0.46-1.15s0.29-.72.42-1l0.16,0h0.33l0.16,0,0.58,1.55c0.21,0.56.42,1.1,0.63,1.63s0.42,1,.62,1.52,0.38,0.88.54,1.21m-3-4.27c-0.15.35-.29,0.68-0.42,1l-0.38,1h1.57c-0.12-.35-0.25-0.68-0.37-1s-0.25-.67-0.39-1" transform="translate(0 0)" style="fill:#ed1d24"/><path d="M99,36.28c0-.37,0-0.74,0-1.11l0.31,0H100l0.31,0c0,0.37,0,.74-0.05,1.11s0,0.79,0,1.26V38.7c0,0.47,0,.89,0,1.26s0,0.73.05,1.08L100,41H99.25l-0.31,0c0-.36,0-0.71,0-1.08s0-.79,0-1.26V37.54c0-.47,0-0.89,0-1.26" transform="translate(0 0)" style="fill:#ed1d24"/><path d="M0.24,15.51S6.78,24,20.6,24a33.32,33.32,0,0,0,17.09-4.54s0.24-.59-0.84-0.84l-1.09-.27a19.16,19.16,0,0,1-4-1.56l0.74-1.87a8,8,0,0,0,3.91-1c0.56-.31.09-1.26-0.17-1.61a29.21,29.21,0,0,1-2-3.47,2.35,2.35,0,0,0-.78-1.3l0.43-2.48,2.69,2.69H35.42S36.76,10,37,10.48a4.68,4.68,0,0,1,.48,3.17A4,4,0,0,1,35.85,16s2,0.56,2.43.74,1.13,0.74.57,2.34a4.31,4.31,0,0,1-2,2.69c-0.91.57-6.09,4.48-18.94,4.3C10.57,26,4,21.43,4,21.43S1.49,17.95.84,16.87a3,3,0,0,1-.6-1.36" transform="translate(0 0)" style="fill:#ed1d24"/><path d="M39,0.62S18.87,7.13,10.74,10.74l-1,1.87S28.47,5.48,38.24,2.27Z" transform="translate(0 0)" style="fill:#ed1d24"/><path d="M22.3,14.35s1-1.91,1.48-2a9.24,9.24,0,0,1,3.26.35c0.69,0.31,0,1.08-.39,1.69A3.11,3.11,0,0,1,25,15.87c-0.74.18-3.82,0.61-2.26,0s3.87-1.35,2.3-1.44-2.74-.08-2.74-0.08" transform="translate(0 0)" style="fill:#ed1d24"/><path d="M40.67,12.7A5.33,5.33,0,0,1,41.93,14a14,14,0,0,0,5.26,3.82c2.52,1,2.39,1.39,2,1.78a96.9,96.9,0,0,1-9.34,5.9c-2.52,1.22-4.73,1.48-2.78-4,0,0-.18-0.26-0.61.74s-2,5,.26,5.87c0.78,0.31,1.65.17,4.17-1.13s7.82-4.86,8.64-5.82a3.25,3.25,0,0,0,.65-2.65c-0.09-1-.09-1.48-2.34-2.69s-4.17-2.22-5-3.43l1.08-.09-3.21-2V12.7Z" transform="translate(0 0)" style="fill:#ed1d24"/><polygon points="51.27 13.48 53.29 14.96 52.31 16.95 50.28 15.47 51.27 13.48" style="fill:#ed1d24"/><polygon points="54.38 12.97 56.4 14.46 55.43 16.45 53.39 14.96 54.38 12.97" style="fill:#ed1d24"/><polygon points="41.26 16.63 43.28 18.11 42.31 20.1 40.27 18.61 41.26 16.63" style="fill:#ed1d24"/><polygon points="25.28 27.66 27.3 29.14 26.32 31.13 24.29 29.65 25.28 27.66" style="fill:#ed1d24"/><polygon points="22.15 28.01 24.17 29.49 23.2 31.48 21.16 30 22.15 28.01" style="fill:#ed1d24"/><path d="M47.58,3.29C47.32,3,47,2.77,47,2.77S48,1.21,47.16.11C46.87-.27,45.57.38,45.07,1a1.33,1.33,0,0,0,.14,1.82l0.91,0.71a15.7,15.7,0,0,1-3.46,3.09C40.16,8.44,37.94,10,37.94,10s-0.71.58,1.16-.42a41.62,41.62,0,0,0,4.27-2.48,27.45,27.45,0,0,0,3.07-3.28,2.23,2.23,0,0,1,.56.51c0.2,0.29.31,0.48,0.31,0.48s0.51-1.19.26-1.48m-0.93-.8s-1.35-.95-1.18-1.16a0.91,0.91,0,0,1,1.12-.14c0.42,0.27.06,1.31,0.06,1.31" transform="translate(0 0)" style="fill:#ed1d24"/><path d="M59.65,3.73a6.23,6.23,0,0,0-.53-0.52s0.94-1.56.11-2.66c-0.29-.38-1.58.27-2.09,0.92a1.34,1.34,0,0,0,.15,1.82L58.19,4a15.63,15.63,0,0,1-3.45,3.09C52.23,8.87,50,10.4,50,10.4S49.3,11,51.18,10a43.06,43.06,0,0,0,4.27-2.49,27.62,27.62,0,0,0,3.07-3.27,2.12,2.12,0,0,1,.56.51c0.2,0.29.31,0.47,0.31,0.47s0.51-1.18.26-1.47m-0.92-.8S57.38,2,57.54,1.77a0.91,0.91,0,0,1,1.12-.15c0.42,0.27.06,1.31,0.06,1.31" transform="translate(0 0)" style="fill:#ed1d24"/><path d="M94.54,8.79a4.72,4.72,0,0,0-.43-0.43,2.16,2.16,0,0,0,.09-2.18c-0.24-.31-1.3.22-1.71,0.76a1.09,1.09,0,0,0,.12,1.49L93.35,9a13,13,0,0,1-2.83,2.53c-2.06,1.46-3.87,2.72-3.87,2.72s-0.58.48,1-.34a33.28,33.28,0,0,0,3.5-2,22.66,22.66,0,0,0,2.52-2.68,1.68,1.68,0,0,1,.47.42L94.33,10a2.05,2.05,0,0,0,.21-1.21m-0.76-.66s-1.11-.77-1-1a0.75,0.75,0,0,1,.92-0.12,1.18,1.18,0,0,1,0,1.07" transform="translate(0 0)" style="fill:#ed1d24"/><path d="M72,7.44s-11.14,3.92-13.54,5.13l-0.38,1.16s3.64-1.62,7.44-3S71.2,8.58,71.2,8.58Z" transform="translate(0 0)" style="fill:#ed1d24"/><path d="M66.08,21.21a8,8,0,0,0,3.26,2c1.1,0.36,1.69-1.74,1.78-2.08s-0.79-3.69-2-3.82-2.34,1.65-2.34,1.65l-0.1,0a0.18,0.18,0,0,0-.26,0L66,19.43c-1.48,2.22-2.41,2.48-4,2.4-1.92-.1-3.07-2.4-3.42-3.22s-2.21,0-3.17,1.56a51.89,51.89,0,0,0-2.3,5.65c-0.83,1.91-1.57,1.48-2.39.48s-1.13-3.86-1.08-5.13-0.26-.35-0.26-0.35c-0.56,5,1.3,7.91,2.35,7.82s1.6-1.3,2-2.17,1.16-4.13,2.09-5.21a1.89,1.89,0,0,1,1.84-.77,1.05,1.05,0,0,1,.33.42c0.31,0.52,1.93,3.15,4.1,3.15a3.82,3.82,0,0,0,3.15-2.11c0.13-.22.53-1.14,0.82-0.74m2.42-1.93a2.53,2.53,0,0,1,1,1.42c0.14,0.49-.59.06-1.07-0.2a4.84,4.84,0,0,1-1-.8,1.1,1.1,0,0,1,1.11-.43" transform="translate(0 0)" style="fill:#ed1d24"/><path d="M95.06,17.24c-1.48-.57-4.67-2.65-6.58-1.69a4.07,4.07,0,0,0-2.17,3.34,16.08,16.08,0,0,0,.45,2.67c-2.63-.78-3.52-3.61-5.78-6.21s-6.6-7-6.6-7a64.06,64.06,0,0,1,14.07-5C90.19,3,90.89,3.25,91,3.46c0.55,0.79-.28,1.52-0.85,2.43a25.55,25.55,0,0,0-1.78,4c-0.17.65-.24,1.35,0.13,0.54s1.5-2.94,2-3.87,1.91-3.37,1.93-4.37-1.65-1.11-2.89-.91c-6.67,1-15.79,5.4-15.79,5.4L72.84,9.37a81.78,81.78,0,0,1,7.77,10.9c0.15,0.56-2.14,1.12-2.14,1.12a4.37,4.37,0,0,0-2.76-2.69c-0.85-.09-1.82.83-2.49,2.23a2,2,0,0,0,1.33,2.78,7.49,7.49,0,0,0,3-.09c0.38,0.56.07,0.76,0.07,0.76a20.74,20.74,0,0,1-6.85,4.73c-2.69,1.14-5-.18-5.18-2.46A11.23,11.23,0,0,1,66.5,22s0-.6-0.39.2a12.17,12.17,0,0,0-1.26,4.62c-0.07.65,0.08,4.48,3.17,4.82,4.21,0.47,8.45-4.1,9.51-5.15a5.56,5.56,0,0,0,1.15-3.19c2.3-.76,2.3-1.74,2.52-2.67a7.34,7.34,0,0,0-.3-2.71s1.67,2.52,3.11,4.3a4.32,4.32,0,0,0,3.37,1.68,4.86,4.86,0,0,0,.18,1.39c0.46,0,.54-1.47.54-1.47,1.58-.24,4.5-1.56,7-2.7s3.93-.55,3.93-0.55l1-2a21,21,0,0,1-5-1.32M74.79,21.6c-0.43-.17-0.54-0.17-0.24-0.54a0.89,0.89,0,0,1,1.06-.26,1.2,1.2,0,0,1,.72.5,2,2,0,0,1,.31.48,8.33,8.33,0,0,1-1.85-.18m15.94-.65a18.49,18.49,0,0,1-2.76.74s-0.83-2.82-.85-3a1.22,1.22,0,0,1,.5-0.87,2.81,2.81,0,0,1,2.82-.33c1.52,0.52,3.61,1.72,4.52,2,0,0-2.39.85-4.23,1.46" transform="translate(0 0)" style="fill:#ed1d24"/><path d="M64.45,5l-0.08.22a4,4,0,0,0-.72-0.37c-0.19,0-.26-0.16-0.22-0.48s0.1-1,.54-0.81A4.54,4.54,0,0,1,65.72,6.7s0.19-2.13.35-2.74,0.39-1.18,1.48-.22l-0.31.8s-0.78-.85-1-0.11A18.59,18.59,0,0,0,66,6.59c-0.13.87-.31,1.45-0.37,0.85a5.41,5.41,0,0,0-.76-1.91A1.38,1.38,0,0,0,64.45,5" transform="translate(0 0)" style="fill:#ed1d24"/><path d="M81.92,10.13l-0.09.22A4.14,4.14,0,0,0,81.11,10c-0.19,0-.26-0.15-0.22-0.48s0.11-1,.54-0.8a4.51,4.51,0,0,1,1.74,3.13s0.19-2.13.35-2.74S83.92,7.91,85,8.87l-0.31.8s-0.78-.85-1-0.11a18.56,18.56,0,0,0-.28,2.15c-0.13.87-.3,1.45-0.37,0.85a5.5,5.5,0,0,0-.76-1.91,1.52,1.52,0,0,0-.39-0.52" transform="translate(0 0)" style="fill:#ed1d24"/><path d="M64.17,17.72c0.33,0.08.94-.16,1.18-1.37,0.14-.68-0.21,0-0.21,0a0.48,0.48,0,0,1-.52.22c-0.26-.14-0.58-0.5-0.2-1.57a15.41,15.41,0,0,1,.83-2c0-.09-0.05-0.29-0.32.25a12.92,12.92,0,0,0-1.18,2.89,1.58,1.58,0,0,0,.3,1.47Z" transform="translate(0 0)" style="fill:#ed1d24"/><path d="M28.33,21.17c0.34,0.08.94-.15,1.18-1.36,0.14-.68-0.21,0-0.21,0a0.49,0.49,0,0,1-.52.22c-0.26-.14-0.58-0.5-0.2-1.57a17.15,17.15,0,0,1,.83-2c0.05-.09-0.05-0.28-0.32.25a12.77,12.77,0,0,0-1.18,2.9,1.57,1.57,0,0,0,.3,1.47Z" transform="translate(0 0)" style="fill:#ed1d24"/></svg>